<svg width="61" height="61" viewBox="0 0 61 61" fill="none" xmlns="http://www.w3.org/2000/svg">
<g filter="url(#filter0_d_31_58)">
<circle cx="30.5" cy="26.5" r="26.5" fill="#7CBFF0" fill-opacity="0.58"/>
<g clip-path="url(#clip0_31_58)">
<path d="M12.0336 19.9226C12.4208 19.9226 12.7347 19.5829 12.7347 19.1638C12.7347 18.7448 12.4208 18.405 12.0336 18.405C11.6464 18.405 11.3325 18.7448 11.3325 19.1638C11.3325 19.5829 11.6464 19.9226 12.0336 19.9226Z" fill="#317BEF"/>
<path d="M14.137 19.9226C14.5242 19.9226 14.8381 19.5829 14.8381 19.1638C14.8381 18.7448 14.5242 18.405 14.137 18.405C13.7498 18.405 13.4359 18.7448 13.4359 19.1638C13.4359 19.5829 13.7498 19.9226 14.137 19.9226Z" fill="#317BEF"/>
<path d="M16.2403 19.9226C16.6275 19.9226 16.9414 19.5829 16.9414 19.1638C16.9414 18.7448 16.6275 18.405 16.2403 18.405C15.8531 18.405 15.5392 18.7448 15.5392 19.1638C15.5392 19.5829 15.8531 19.9226 16.2403 19.9226Z" fill="#317BEF"/>
<path d="M18.3436 19.9226C18.7308 19.9226 19.0447 19.5829 19.0447 19.1638C19.0447 18.7448 18.7308 18.405 18.3436 18.405C17.9564 18.405 17.6425 18.7448 17.6425 19.1638C17.6425 19.5829 17.9564 19.9226 18.3436 19.9226Z" fill="#317BEF"/>
<path d="M20.447 19.9226C20.8342 19.9226 21.1481 19.5829 21.1481 19.1638C21.1481 18.7448 20.8342 18.405 20.447 18.405C20.0597 18.405 19.7458 18.7448 19.7458 19.1638C19.7458 19.5829 20.0597 19.9226 20.447 19.9226Z" fill="#317BEF"/>
<path d="M22.5503 19.9226C22.9375 19.9226 23.2514 19.5829 23.2514 19.1638C23.2514 18.7448 22.9375 18.405 22.5503 18.405C22.1631 18.405 21.8492 18.7448 21.8492 19.1638C21.8492 19.5829 22.1631 19.9226 22.5503 19.9226Z" fill="#317BEF"/>
<path d="M24.6536 19.9226C25.0408 19.9226 25.3547 19.5829 25.3547 19.1638C25.3547 18.7448 25.0408 18.405 24.6536 18.405C24.2664 18.405 23.9525 18.7448 23.9525 19.1638C23.9525 19.5829 24.2664 19.9226 24.6536 19.9226Z" fill="#317BEF"/>
<path d="M26.2738 20.0878H10.4135C10.3378 20.0877 10.2653 20.0552 10.2118 19.9973C10.1584 19.9394 10.1283 19.8609 10.1282 19.7791V18.5486C10.1283 18.4667 10.1584 18.3883 10.2118 18.3304C10.2653 18.2725 10.3378 18.2399 10.4135 18.2398H26.2738C26.3494 18.2399 26.422 18.2725 26.4754 18.3304C26.5289 18.3883 26.559 18.4667 26.5591 18.5486V19.7791C26.559 19.8609 26.5289 19.9394 26.4754 19.9973C26.422 20.0552 26.3494 20.0877 26.2738 20.0878ZM10.4135 18.3633C10.3681 18.3634 10.3246 18.3829 10.2925 18.4177C10.2604 18.4524 10.2423 18.4995 10.2423 18.5486V19.7791C10.2423 19.8282 10.2604 19.8753 10.2925 19.91C10.3246 19.9447 10.3681 19.9643 10.4135 19.9643H26.2738C26.3192 19.9643 26.3627 19.9447 26.3948 19.91C26.4269 19.8753 26.4449 19.8282 26.445 19.7791V18.5486C26.4449 18.4995 26.4269 18.4524 26.3948 18.4177C26.3627 18.3829 26.3192 18.3634 26.2738 18.3633L10.4135 18.3633Z" fill="#317BEF"/>
<path d="M13.8077 13.1774C13.8511 13.1775 13.8928 13.1962 13.9235 13.2294C13.9543 13.2627 13.9715 13.3078 13.9716 13.3548V17.1993C13.9715 17.2464 13.9543 17.2915 13.9235 17.3247C13.8928 17.358 13.8511 17.3767 13.8077 17.3767H10.3279C10.2844 17.3767 10.2427 17.358 10.212 17.3247C10.1813 17.2915 10.164 17.2464 10.1639 17.1993V13.3548C10.164 13.3078 10.1813 13.2627 10.212 13.2294C10.2427 13.1962 10.2844 13.1775 10.3279 13.1774H13.8077V13.1774ZM13.8077 13H10.3279C10.2409 13 10.1575 13.0374 10.096 13.1039C10.0345 13.1705 10 13.2607 10 13.3548V17.1993C10 17.2934 10.0345 17.3837 10.096 17.4502C10.1575 17.5168 10.2409 17.5542 10.3279 17.5542H13.8077C13.8946 17.5542 13.978 17.5168 14.0395 17.4502C14.101 17.3837 14.1355 17.2934 14.1355 17.1993V13.3548C14.1355 13.2607 14.101 13.1705 14.0395 13.1039C13.978 13.0374 13.8946 13 13.8077 13V13Z" fill="#317BEF"/>
<path d="M13.2649 14.188H10.9432C10.9324 14.188 10.9217 14.1858 10.9117 14.1814C10.9017 14.177 10.8926 14.1704 10.8849 14.1622C10.8772 14.1539 10.8712 14.1441 10.867 14.1333C10.8629 14.1225 10.8607 14.111 10.8607 14.0993C10.8607 14.0876 10.8629 14.076 10.867 14.0652C10.8712 14.0544 10.8772 14.0446 10.8849 14.0363C10.8926 14.0281 10.9017 14.0216 10.9117 14.0172C10.9217 14.0127 10.9324 14.0105 10.9432 14.0106H13.2649C13.2757 14.0105 13.2864 14.0127 13.2964 14.0172C13.3064 14.0216 13.3155 14.0281 13.3232 14.0363C13.3308 14.0446 13.3369 14.0544 13.3411 14.0652C13.3452 14.076 13.3474 14.0876 13.3474 14.0993C13.3474 14.111 13.3452 14.1225 13.3411 14.1333C13.3369 14.1441 13.3308 14.1539 13.3232 14.1622C13.3155 14.1704 13.3064 14.177 13.2964 14.1814C13.2864 14.1858 13.2757 14.188 13.2649 14.188Z" fill="#317BEF"/>
<path d="M13.2649 14.8161H10.9432C10.9324 14.8162 10.9217 14.814 10.9117 14.8095C10.9017 14.8051 10.8926 14.7986 10.8849 14.7904C10.8772 14.7821 10.8712 14.7723 10.867 14.7615C10.8629 14.7507 10.8607 14.7391 10.8607 14.7274C10.8607 14.7157 10.8629 14.7042 10.867 14.6934C10.8712 14.6826 10.8772 14.6728 10.8849 14.6645C10.8926 14.6563 10.9017 14.6498 10.9117 14.6453C10.9217 14.6409 10.9324 14.6387 10.9432 14.6387H13.2649C13.2757 14.6387 13.2864 14.6409 13.2964 14.6453C13.3064 14.6498 13.3155 14.6563 13.3232 14.6645C13.3308 14.6728 13.3369 14.6826 13.3411 14.6934C13.3452 14.7042 13.3474 14.7157 13.3474 14.7274C13.3474 14.7391 13.3452 14.7507 13.3411 14.7615C13.3369 14.7723 13.3308 14.7821 13.3232 14.7904C13.3155 14.7986 13.3064 14.8051 13.2964 14.8095C13.2864 14.814 13.2757 14.8162 13.2649 14.8161Z" fill="#317BEF"/>
<path d="M13.2649 15.4443H10.9432C10.9324 15.4443 10.9217 15.4421 10.9117 15.4377C10.9017 15.4333 10.8926 15.4267 10.8849 15.4185C10.8772 15.4102 10.8712 15.4004 10.867 15.3896C10.8629 15.3788 10.8607 15.3673 10.8607 15.3556C10.8607 15.3439 10.8629 15.3323 10.867 15.3215C10.8712 15.3107 10.8772 15.3009 10.8849 15.2927C10.8926 15.2844 10.9017 15.2779 10.9117 15.2735C10.9217 15.269 10.9324 15.2668 10.9432 15.2669H13.2649C13.2757 15.2668 13.2864 15.269 13.2964 15.2735C13.3064 15.2779 13.3155 15.2844 13.3232 15.2927C13.3308 15.3009 13.3369 15.3107 13.3411 15.3215C13.3452 15.3323 13.3474 15.3439 13.3474 15.3556C13.3474 15.3673 13.3452 15.3788 13.3411 15.3896C13.3369 15.4004 13.3308 15.4102 13.3232 15.4185C13.3155 15.4267 13.3064 15.4333 13.2964 15.4377C13.2864 15.4421 13.2757 15.4443 13.2649 15.4443Z" fill="#317BEF"/>
<path d="M13.2649 16.0725H10.9432C10.9324 16.0725 10.9217 16.0703 10.9117 16.0659C10.9017 16.0614 10.8926 16.0549 10.8849 16.0467C10.8772 16.0384 10.8712 16.0286 10.867 16.0178C10.8629 16.007 10.8607 15.9955 10.8607 15.9838C10.8607 15.9721 10.8629 15.9605 10.867 15.9497C10.8712 15.9389 10.8772 15.9291 10.8849 15.9208C10.8926 15.9126 10.9017 15.9061 10.9117 15.9016C10.9217 15.8972 10.9324 15.895 10.9432 15.8951H13.2649C13.2757 15.895 13.2864 15.8972 13.2964 15.9016C13.3064 15.9061 13.3155 15.9126 13.3232 15.9208C13.3308 15.9291 13.3369 15.9389 13.3411 15.9497C13.3452 15.9605 13.3474 15.9721 13.3474 15.9838C13.3474 15.9955 13.3452 16.007 13.3411 16.0178C13.3369 16.0286 13.3308 16.0384 13.3232 16.0467C13.3155 16.0549 13.3064 16.0614 13.2964 16.0659C13.2864 16.0703 13.2757 16.0725 13.2649 16.0725Z" fill="#317BEF"/>
<path d="M13.2649 16.7007H10.9432C10.9214 16.7007 10.9006 16.6913 10.8852 16.6747C10.8698 16.658 10.8612 16.6355 10.8612 16.6119C10.8612 16.5884 10.8698 16.5659 10.8852 16.5492C10.9006 16.5326 10.9214 16.5232 10.9432 16.5232H13.2649C13.2866 16.5232 13.3075 16.5326 13.3228 16.5492C13.3382 16.5659 13.3468 16.5884 13.3468 16.6119C13.3468 16.6355 13.3382 16.658 13.3228 16.6747C13.3075 16.6913 13.2866 16.7007 13.2649 16.7007Z" fill="#317BEF"/>
<path d="M25.6927 13.1774C25.7362 13.1775 25.7779 13.1962 25.8086 13.2294C25.8393 13.2627 25.8566 13.3078 25.8567 13.3548V17.1993C25.8566 17.2464 25.8393 17.2915 25.8086 17.3247C25.7779 17.358 25.7362 17.3767 25.6927 17.3767H22.2129C22.1695 17.3767 22.1278 17.358 22.0971 17.3247C22.0663 17.2915 22.0491 17.2464 22.049 17.1993V13.3548C22.0491 13.3078 22.0663 13.2627 22.0971 13.2294C22.1278 13.1962 22.1695 13.1775 22.2129 13.1774H25.6927V13.1774ZM25.6927 13H22.2129C22.126 13 22.0426 13.0374 21.9811 13.1039C21.9196 13.1705 21.8851 13.2607 21.8851 13.3548V17.1993C21.8851 17.2934 21.9196 17.3837 21.9811 17.4502C22.0426 17.5168 22.126 17.5542 22.2129 17.5542H25.6927C25.7797 17.5542 25.8631 17.5168 25.9246 17.4502C25.9861 17.3837 26.0206 17.2934 26.0206 17.1993V13.3548C26.0206 13.2607 25.9861 13.1705 25.9246 13.1039C25.8631 13.0374 25.7797 13 25.6927 13V13Z" fill="#317BEF"/>
<path d="M25.15 14.188H22.8283C22.8175 14.188 22.8067 14.1858 22.7967 14.1814C22.7867 14.177 22.7776 14.1704 22.77 14.1622C22.7623 14.1539 22.7562 14.1441 22.7521 14.1333C22.7479 14.1225 22.7458 14.111 22.7458 14.0993C22.7458 14.0876 22.7479 14.076 22.7521 14.0652C22.7562 14.0544 22.7623 14.0446 22.77 14.0363C22.7776 14.0281 22.7867 14.0216 22.7967 14.0172C22.8067 14.0127 22.8175 14.0105 22.8283 14.0106H25.15C25.1716 14.0107 25.1923 14.0201 25.2076 14.0367C25.2228 14.0534 25.2314 14.0758 25.2314 14.0993C25.2314 14.1227 25.2228 14.1452 25.2076 14.1618C25.1923 14.1784 25.1716 14.1878 25.15 14.188H25.15Z" fill="#317BEF"/>
<path d="M25.15 14.8161H22.8283C22.8175 14.8162 22.8067 14.814 22.7967 14.8095C22.7867 14.8051 22.7776 14.7986 22.77 14.7904C22.7623 14.7821 22.7562 14.7723 22.7521 14.7615C22.7479 14.7507 22.7458 14.7391 22.7458 14.7274C22.7458 14.7157 22.7479 14.7042 22.7521 14.6934C22.7562 14.6826 22.7623 14.6728 22.77 14.6645C22.7776 14.6563 22.7867 14.6498 22.7967 14.6453C22.8067 14.6409 22.8175 14.6387 22.8283 14.6387H25.15C25.1716 14.6389 25.1923 14.6483 25.2076 14.6649C25.2228 14.6815 25.2314 14.704 25.2314 14.7274C25.2314 14.7509 25.2228 14.7734 25.2076 14.79C25.1923 14.8066 25.1716 14.816 25.15 14.8161H25.15Z" fill="#317BEF"/>
<path d="M25.15 15.4443H22.8283C22.8175 15.4443 22.8067 15.4421 22.7967 15.4377C22.7867 15.4333 22.7776 15.4267 22.77 15.4185C22.7623 15.4102 22.7562 15.4004 22.7521 15.3896C22.7479 15.3788 22.7458 15.3673 22.7458 15.3556C22.7458 15.3439 22.7479 15.3323 22.7521 15.3215C22.7562 15.3107 22.7623 15.3009 22.77 15.2927C22.7776 15.2844 22.7867 15.2779 22.7967 15.2735C22.8067 15.269 22.8175 15.2668 22.8283 15.2669H25.15C25.1716 15.267 25.1923 15.2764 25.2076 15.293C25.2228 15.3097 25.2314 15.3321 25.2314 15.3556C25.2314 15.379 25.2228 15.4015 25.2076 15.4181C25.1923 15.4347 25.1716 15.4441 25.15 15.4443H25.15Z" fill="#317BEF"/>
<path d="M25.15 16.0725H22.8283C22.8175 16.0725 22.8067 16.0703 22.7967 16.0659C22.7867 16.0614 22.7776 16.0549 22.77 16.0467C22.7623 16.0384 22.7562 16.0286 22.7521 16.0178C22.7479 16.007 22.7458 15.9955 22.7458 15.9838C22.7458 15.9721 22.7479 15.9605 22.7521 15.9497C22.7562 15.9389 22.7623 15.9291 22.77 15.9208C22.7776 15.9126 22.7867 15.9061 22.7967 15.9016C22.8067 15.8972 22.8175 15.895 22.8283 15.8951H25.15C25.1716 15.8952 25.1923 15.9046 25.2076 15.9212C25.2228 15.9378 25.2314 15.9603 25.2314 15.9838C25.2314 16.0072 25.2228 16.0297 25.2076 16.0463C25.1923 16.0629 25.1716 16.0723 25.15 16.0725H25.15Z" fill="#317BEF"/>
<path d="M25.1499 16.7007H22.8282C22.8065 16.7007 22.7857 16.6913 22.7703 16.6747C22.7549 16.658 22.7463 16.6355 22.7463 16.6119C22.7463 16.5884 22.7549 16.5659 22.7703 16.5492C22.7857 16.5326 22.8065 16.5232 22.8282 16.5232H25.1499C25.1717 16.5232 25.1925 16.5326 25.2079 16.5492C25.2233 16.5659 25.2319 16.5884 25.2319 16.6119C25.2319 16.6355 25.2233 16.658 25.2079 16.6747C25.1925 16.6913 25.1717 16.7007 25.1499 16.7007H25.1499Z" fill="#317BEF"/>
<path d="M37.5201 20.5695C37.5635 20.5696 37.6052 20.5883 37.6359 20.6215C37.6667 20.6548 37.6839 20.6999 37.684 20.7469V24.5914C37.6839 24.6385 37.6667 24.6835 37.6359 24.7168C37.6052 24.7501 37.5635 24.7688 37.5201 24.7688H34.0403C33.9968 24.7688 33.9551 24.7501 33.9244 24.7168C33.8937 24.6835 33.8764 24.6385 33.8763 24.5914V20.7469C33.8764 20.6999 33.8937 20.6548 33.9244 20.6215C33.9551 20.5883 33.9968 20.5696 34.0403 20.5695H37.5201V20.5695ZM37.5201 20.3921H34.0403C33.9533 20.3921 33.8699 20.4295 33.8084 20.496C33.7469 20.5626 33.7124 20.6528 33.7124 20.7469V24.5914C33.7124 24.6855 33.7469 24.7758 33.8084 24.8423C33.8699 24.9089 33.9533 24.9463 34.0403 24.9463H37.5201C37.607 24.9463 37.6904 24.9089 37.7519 24.8423C37.8134 24.7758 37.8479 24.6855 37.8479 24.5914V20.7469C37.8479 20.6528 37.8134 20.5626 37.7519 20.496C37.6904 20.4295 37.607 20.3921 37.5201 20.3921V20.3921Z" fill="#317BEF"/>
<path d="M36.9773 21.5801H34.6556C34.6448 21.5801 34.6341 21.5779 34.6241 21.5735C34.6141 21.569 34.605 21.5625 34.5973 21.5543C34.5896 21.546 34.5836 21.5362 34.5794 21.5254C34.5753 21.5146 34.5731 21.5031 34.5731 21.4914C34.5731 21.4797 34.5753 21.4681 34.5794 21.4573C34.5836 21.4465 34.5896 21.4367 34.5973 21.4284C34.605 21.4202 34.6141 21.4137 34.6241 21.4092C34.6341 21.4048 34.6448 21.4026 34.6556 21.4027H36.9773C36.9989 21.4028 37.0197 21.4122 37.0349 21.4288C37.0502 21.4454 37.0588 21.4679 37.0588 21.4914C37.0588 21.5148 37.0502 21.5373 37.0349 21.5539C37.0197 21.5705 36.9989 21.5799 36.9773 21.5801Z" fill="#317BEF"/>
<path d="M36.9773 22.2082H34.6556C34.6338 22.2082 34.613 22.1989 34.5976 22.1823C34.5822 22.1656 34.5736 22.1431 34.5736 22.1195C34.5736 22.096 34.5822 22.0734 34.5976 22.0568C34.613 22.0402 34.6338 22.0308 34.6556 22.0308H36.9773C36.999 22.0308 37.0199 22.0402 37.0352 22.0568C37.0506 22.0734 37.0592 22.096 37.0592 22.1195C37.0592 22.1431 37.0506 22.1656 37.0352 22.1823C37.0199 22.1989 36.999 22.2082 36.9773 22.2082Z" fill="#317BEF"/>
<path d="M36.9773 22.8364H34.6556C34.6448 22.8364 34.6341 22.8342 34.6241 22.8298C34.6141 22.8253 34.605 22.8188 34.5973 22.8106C34.5897 22.8023 34.5836 22.7925 34.5795 22.7817C34.5753 22.7709 34.5732 22.7594 34.5732 22.7477C34.5732 22.736 34.5753 22.7244 34.5795 22.7136C34.5836 22.7028 34.5897 22.693 34.5973 22.6848C34.605 22.6765 34.6141 22.67 34.6241 22.6656C34.6341 22.6612 34.6448 22.6589 34.6556 22.659H36.9773C36.9989 22.6591 37.0196 22.6685 37.0349 22.6851C37.0502 22.7018 37.0587 22.7242 37.0587 22.7477C37.0587 22.7711 37.0502 22.7936 37.0349 22.8102C37.0196 22.8268 36.9989 22.8362 36.9773 22.8364Z" fill="#317BEF"/>
<path d="M36.9773 23.4645H34.6556C34.6448 23.4646 34.6341 23.4624 34.6241 23.458C34.6141 23.4535 34.605 23.447 34.5973 23.4388C34.5896 23.4305 34.5836 23.4207 34.5794 23.4099C34.5753 23.3991 34.5731 23.3875 34.5731 23.3758C34.5731 23.3641 34.5753 23.3526 34.5794 23.3418C34.5836 23.331 34.5896 23.3212 34.5973 23.3129C34.605 23.3047 34.6141 23.2982 34.6241 23.2937C34.6341 23.2893 34.6448 23.2871 34.6556 23.2871H36.9773C36.9989 23.2873 37.0197 23.2967 37.0349 23.3133C37.0502 23.3299 37.0588 23.3524 37.0588 23.3758C37.0588 23.3993 37.0502 23.4218 37.0349 23.4384C37.0197 23.455 36.9989 23.4644 36.9773 23.4645Z" fill="#317BEF"/>
<path d="M36.9773 24.0927H34.6556C34.6448 24.0928 34.6341 24.0906 34.6241 24.0861C34.6141 24.0817 34.605 24.0752 34.5973 24.067C34.5896 24.0587 34.5836 24.0489 34.5794 24.0381C34.5753 24.0273 34.5731 24.0157 34.5731 24.004C34.5731 23.9923 34.5753 23.9808 34.5794 23.97C34.5836 23.9592 34.5896 23.9494 34.5973 23.9411C34.605 23.9329 34.6141 23.9264 34.6241 23.9219C34.6341 23.9175 34.6448 23.9153 34.6556 23.9153H36.9773C36.9989 23.9155 37.0197 23.9249 37.0349 23.9415C37.0502 23.9581 37.0588 23.9806 37.0588 24.004C37.0588 24.0275 37.0502 24.0499 37.0349 24.0666C37.0197 24.0832 36.9989 24.0926 36.9773 24.0927Z" fill="#317BEF"/>
<path d="M19.7957 17.5541H16.2248C16.1282 17.554 16.0356 17.5125 15.9673 17.4386C15.8991 17.3647 15.8606 17.2645 15.8605 17.16V14.3946C15.8606 14.2901 15.899 14.1899 15.9673 14.116C16.0356 14.0421 16.1282 14.0005 16.2248 14.0004H19.7957C19.8923 14.0005 19.9849 14.0421 20.0532 14.116C20.1215 14.1899 20.1599 14.2901 20.16 14.3946V17.16C20.1599 17.2645 20.1215 17.3647 20.0532 17.4386C19.9849 17.5125 19.8923 17.554 19.7957 17.5541ZM16.2248 14.1778C16.1717 14.1779 16.1207 14.2007 16.0832 14.2414C16.0456 14.282 16.0245 14.3371 16.0245 14.3946V17.16C16.0245 17.2174 16.0456 17.2725 16.0832 17.3132C16.1208 17.3538 16.1717 17.3767 16.2248 17.3767H19.7957C19.8488 17.3767 19.8997 17.3538 19.9373 17.3132C19.9749 17.2725 19.996 17.2174 19.9961 17.16V14.3946C19.996 14.3371 19.9749 14.282 19.9373 14.2414C19.8997 14.2007 19.8488 14.1779 19.7957 14.1778H16.2248Z" fill="#317BEF"/>
<path d="M19.1711 15.2378H16.8494C16.8278 15.2377 16.807 15.2283 16.7918 15.2116C16.7765 15.195 16.7679 15.1725 16.7679 15.1491C16.7679 15.1257 16.7765 15.1032 16.7918 15.0866C16.807 15.07 16.8278 15.0606 16.8494 15.0604H19.1711C19.1819 15.0603 19.1926 15.0626 19.2026 15.067C19.2126 15.0714 19.2217 15.078 19.2294 15.0862C19.2371 15.0944 19.2431 15.1042 19.2473 15.115C19.2514 15.1258 19.2536 15.1374 19.2536 15.1491C19.2536 15.1608 19.2514 15.1724 19.2473 15.1832C19.2431 15.194 19.2371 15.2038 19.2294 15.212C19.2217 15.2203 19.2126 15.2268 19.2026 15.2312C19.1926 15.2357 19.1819 15.2379 19.1711 15.2378Z" fill="#317BEF"/>
<path d="M19.1711 15.866H16.8494C16.8278 15.8659 16.807 15.8564 16.7918 15.8398C16.7765 15.8232 16.7679 15.8007 16.7679 15.7773C16.7679 15.7539 16.7765 15.7314 16.7918 15.7148C16.807 15.6981 16.8278 15.6887 16.8494 15.6886H19.1711C19.1819 15.6885 19.1926 15.6908 19.2026 15.6952C19.2126 15.6996 19.2217 15.7061 19.2294 15.7144C19.2371 15.7226 19.2431 15.7324 19.2473 15.7432C19.2514 15.754 19.2536 15.7656 19.2536 15.7773C19.2536 15.789 19.2514 15.8006 19.2473 15.8114C19.2431 15.8222 19.2371 15.832 19.2294 15.8402C19.2217 15.8485 19.2126 15.855 19.2026 15.8594C19.1926 15.8638 19.1819 15.8661 19.1711 15.866Z" fill="#317BEF"/>
<path d="M19.1711 16.4941H16.8494C16.8278 16.494 16.807 16.4846 16.7918 16.468C16.7765 16.4513 16.7679 16.4289 16.7679 16.4054C16.7679 16.382 16.7765 16.3595 16.7918 16.3429C16.807 16.3263 16.8278 16.3169 16.8494 16.3167H19.1711C19.1819 16.3167 19.1926 16.3189 19.2026 16.3233C19.2126 16.3277 19.2217 16.3343 19.2294 16.3425C19.2371 16.3508 19.2431 16.3606 19.2473 16.3714C19.2514 16.3822 19.2536 16.3937 19.2536 16.4054C19.2536 16.4171 19.2514 16.4287 19.2473 16.4395C19.2431 16.4503 19.2371 16.4601 19.2294 16.4684C19.2217 16.4766 19.2126 16.4831 19.2026 16.4875C19.1926 16.492 19.1819 16.4942 19.1711 16.4941Z" fill="#317BEF"/>
<path d="M31.6446 19.0865L28.215 18.0101C28.1223 17.9809 28.0441 17.9131 27.9975 17.8215C27.951 17.7299 27.9399 17.6221 27.9666 17.5217L28.6783 14.8658C28.7053 14.7655 28.768 14.6808 28.8526 14.6304C28.9372 14.58 29.0368 14.568 29.1296 14.597L32.5592 15.6734C32.652 15.7026 32.7302 15.7704 32.7768 15.862C32.8233 15.9536 32.8344 16.0614 32.8076 16.1618L32.096 18.8177C32.0689 18.9181 32.0063 19.0027 31.9217 19.0531C31.837 19.1035 31.7374 19.1155 31.6446 19.0865ZM29.084 14.7674C29.0329 14.7514 28.9781 14.7581 28.9316 14.7858C28.8851 14.8135 28.8506 14.8601 28.8358 14.9152L28.1241 17.5711C28.1094 17.6264 28.1155 17.6857 28.1411 17.736C28.1667 17.7864 28.2097 17.8237 28.2607 17.8397L31.6903 18.9161C31.7413 18.9321 31.7961 18.9255 31.8426 18.8978C31.8892 18.87 31.9237 18.8235 31.9385 18.7683L32.6502 16.1124C32.6649 16.0572 32.6588 15.9979 32.6332 15.9475C32.6076 15.8972 32.5646 15.8598 32.5136 15.8438L29.084 14.7674Z" fill="#317BEF"/>
<path d="M31.6409 16.6736L29.4111 15.9737C29.3903 15.9671 29.3727 15.9519 29.3622 15.9313C29.3518 15.9107 29.3493 15.8864 29.3554 15.8639C29.3614 15.8413 29.3755 15.8223 29.3945 15.8109C29.4135 15.7996 29.4359 15.7968 29.4568 15.8033L31.6866 16.5032C31.7075 16.5097 31.7251 16.525 31.7356 16.5456C31.746 16.5662 31.7485 16.5905 31.7425 16.6131C31.7364 16.6357 31.7223 16.6547 31.7033 16.6661C31.6842 16.6774 31.6618 16.6801 31.6409 16.6736H31.6409Z" fill="#317BEF"/>
<path d="M31.4792 17.2769L29.2494 16.5771C29.239 16.5738 29.2294 16.5684 29.221 16.5611C29.2126 16.5538 29.2056 16.5448 29.2004 16.5346C29.1952 16.5244 29.1919 16.5132 29.1907 16.5016C29.1896 16.4901 29.1905 16.4783 29.1935 16.4672C29.1965 16.456 29.2015 16.4455 29.2082 16.4364C29.2149 16.4273 29.2233 16.4198 29.2327 16.4141C29.2421 16.4085 29.2525 16.405 29.2632 16.4037C29.2739 16.4024 29.2847 16.4034 29.295 16.4067L31.5249 17.1065C31.5457 17.1131 31.5633 17.1284 31.5737 17.1489C31.5842 17.1695 31.5867 17.1938 31.5806 17.2163C31.5746 17.2389 31.5605 17.258 31.5415 17.2693C31.5225 17.2807 31.5001 17.2834 31.4792 17.2769Z" fill="#317BEF"/>
<path d="M31.3176 17.8802L29.0877 17.1803C29.0669 17.1737 29.0493 17.1585 29.0389 17.1379C29.0284 17.1173 29.0259 17.093 29.032 17.0705C29.038 17.0479 29.0521 17.0289 29.0711 17.0175C29.0901 17.0062 29.1125 17.0034 29.1334 17.0099L31.3632 17.7098C31.3841 17.7163 31.4017 17.7316 31.4122 17.7522C31.4227 17.7728 31.4252 17.7971 31.4191 17.8197C31.4131 17.8423 31.399 17.8613 31.3799 17.8727C31.3609 17.884 31.3384 17.8867 31.3176 17.8802Z" fill="#317BEF"/>
<path d="M54 46.833H18.0296V47H54V46.833Z" fill="#E6E6E6"/>
<path d="M38.9147 46.5719H33.0654L33.2637 43.7823H38.7164L38.9147 46.5719Z" fill="#E6E6E6"/>
<path d="M39.3112 46.2501H32.7679V46.8938H39.3112V46.2501Z" fill="#E6E6E6"/>
<path d="M47.1929 25.8105H24.8367C24.6789 25.8105 24.5276 25.8783 24.416 25.9991C24.3045 26.1198 24.2418 26.2835 24.2418 26.4543V41.2072H47.7878V26.4543C47.7878 26.3697 47.7724 26.286 47.7425 26.2079C47.7126 26.1298 47.6688 26.0589 47.6136 25.9991C47.5583 25.9393 47.4928 25.8919 47.4206 25.8595C47.3484 25.8272 47.2711 25.8105 47.1929 25.8105H47.1929Z" fill="#3F3D56"/>
<path d="M24.2418 41.2072V43.6213C24.2418 43.7059 24.2572 43.7896 24.2871 43.8677C24.317 43.9458 24.3608 44.0168 24.416 44.0766C24.4713 44.1363 24.5369 44.1838 24.609 44.2161C24.6812 44.2485 24.7586 44.2651 24.8367 44.2651H47.1929C47.3507 44.2651 47.502 44.1973 47.6136 44.0766C47.7251 43.9558 47.7878 43.7921 47.7878 43.6213V41.2072H24.2418Z" fill="#E6E6E6"/>
<path d="M46.6477 27.1517H25.4315V40.027H46.6477V27.1517Z" fill="#E6E6E6"/>
<path d="M36.0395 43.3531C36.3681 43.3531 36.6344 43.0649 36.6344 42.7093C36.6344 42.3538 36.3681 42.0656 36.0395 42.0656C35.711 42.0656 35.4447 42.3538 35.4447 42.7093C35.4447 43.0649 35.711 43.3531 36.0395 43.3531Z" fill="#3F3D56"/>
<path d="M26.093 27.6955C26.1553 27.6955 26.2059 27.6408 26.2059 27.5733C26.2059 27.5059 26.1553 27.4512 26.093 27.4512C26.0306 27.4512 25.9801 27.5059 25.9801 27.5733C25.9801 27.6408 26.0306 27.6955 26.093 27.6955Z" fill="white"/>
<path d="M26.5215 27.6955C26.5839 27.6955 26.6344 27.6408 26.6344 27.5733C26.6344 27.5059 26.5839 27.4512 26.5215 27.4512C26.4592 27.4512 26.4086 27.5059 26.4086 27.5733C26.4086 27.6408 26.4592 27.6955 26.5215 27.6955Z" fill="white"/>
<path d="M26.95 27.6955C27.0123 27.6955 27.0629 27.6408 27.0629 27.5733C27.0629 27.5059 27.0123 27.4512 26.95 27.4512C26.8876 27.4512 26.8371 27.5059 26.8371 27.5733C26.8371 27.6408 26.8876 27.6955 26.95 27.6955Z" fill="white"/>
<path d="M46.0361 27.9885H25.9801V38.8016H46.0361V27.9885Z" fill="white"/>
<path d="M27.3133 29.6332C27.2945 29.6332 27.2765 29.6413 27.2632 29.6557C27.2499 29.6701 27.2424 29.6896 27.2424 29.7099V33.5886C27.2424 33.6089 27.2499 33.6284 27.2632 33.6428C27.2765 33.6572 27.2945 33.6653 27.3133 33.6653H31.4522C31.471 33.6653 31.489 33.6572 31.5023 33.6428C31.5156 33.6284 31.523 33.6089 31.5231 33.5886V29.7099C31.523 29.6896 31.5156 29.6701 31.5023 29.6557C31.489 29.6413 31.471 29.6332 31.4522 29.6332H27.3133Z" fill="#E6E6E6"/>
<path d="M33.9587 29.6457C33.9399 29.6457 33.9219 29.6538 33.9086 29.6682C33.8953 29.6826 33.8878 29.7021 33.8878 29.7224V33.5886C33.8878 33.6089 33.8953 33.6285 33.9086 33.6428C33.9219 33.6572 33.9399 33.6653 33.9587 33.6653H38.0844C38.1032 33.6653 38.1212 33.6572 38.1345 33.6428C38.1478 33.6284 38.1552 33.6089 38.1553 33.5886V29.7224C38.1552 29.7021 38.1478 29.6826 38.1345 29.6682C38.1212 29.6538 38.1032 29.6457 38.0844 29.6457H33.9587Z" fill="#E6E6E6"/>
<path d="M40.5345 29.6052C40.5157 29.6052 40.4977 29.6133 40.4844 29.6277C40.4711 29.6421 40.4636 29.6616 40.4636 29.6819V33.5886C40.4636 33.6089 40.4711 33.6284 40.4844 33.6428C40.4977 33.6572 40.5157 33.6653 40.5345 33.6653H44.703C44.7218 33.6653 44.7399 33.6572 44.7531 33.6428C44.7664 33.6284 44.7739 33.6089 44.7739 33.5886V29.6819C44.7739 29.6616 44.7664 29.6421 44.7531 29.6277C44.7399 29.6133 44.7218 29.6052 44.703 29.6052H40.5345Z" fill="#E6E6E6"/>
<path d="M27.389 35.5852C27.3502 35.5853 27.3129 35.6021 27.2855 35.6318C27.2581 35.6616 27.2427 35.7019 27.2427 35.7439C27.2427 35.7859 27.2581 35.8262 27.2855 35.856C27.3129 35.8857 27.3502 35.9024 27.389 35.9025H31.2803C31.3191 35.9024 31.3563 35.8857 31.3838 35.856C31.4112 35.8262 31.4266 35.7859 31.4266 35.7439C31.4266 35.7019 31.4112 35.6616 31.3838 35.6318C31.3563 35.6021 31.3191 35.5853 31.2803 35.5852H27.389Z" fill="#E6E6E6"/>
<path d="M27.389 36.3398C27.3502 36.3399 27.313 36.3567 27.2855 36.3864C27.2581 36.4162 27.2427 36.4565 27.2427 36.4985C27.2427 36.5405 27.2581 36.5808 27.2855 36.6106C27.313 36.6403 27.3502 36.6571 27.389 36.6572H29.141C29.1799 36.6571 29.2171 36.6403 29.2445 36.6106C29.272 36.5808 29.2874 36.5405 29.2874 36.4985C29.2874 36.4565 29.272 36.4162 29.2445 36.3864C29.2171 36.3567 29.1799 36.3399 29.141 36.3398H27.389Z" fill="#317BEF"/>
<path d="M34.1058 35.5852C34.067 35.5853 34.0297 35.6021 34.0023 35.6318C33.9749 35.6616 33.9595 35.7019 33.9595 35.7439C33.9595 35.7859 33.9749 35.8262 34.0023 35.856C34.0297 35.8857 34.067 35.9024 34.1058 35.9025H37.9971C38.0359 35.9024 38.0732 35.8857 38.1006 35.856C38.128 35.8262 38.1434 35.7859 38.1434 35.7439C38.1434 35.7019 38.128 35.6616 38.1006 35.6318C38.0732 35.6021 38.0359 35.5853 37.9971 35.5852H34.1058Z" fill="#E6E6E6"/>
<path d="M34.1058 36.3398C34.067 36.3399 34.0297 36.3567 34.0023 36.3864C33.9749 36.4162 33.9595 36.4565 33.9595 36.4985C33.9595 36.5405 33.9749 36.5808 34.0023 36.6106C34.0297 36.6403 34.067 36.6571 34.1058 36.6572H35.8579C35.8967 36.6571 35.9339 36.6403 35.9614 36.6106C35.9888 36.5808 36.0042 36.5405 36.0042 36.4985C36.0042 36.4565 35.9888 36.4162 35.9614 36.3864C35.9339 36.3567 35.8967 36.3399 35.8579 36.3398H34.1058Z" fill="#317BEF"/>
<path d="M40.6548 35.5852C40.616 35.5853 40.5788 35.6021 40.5513 35.6318C40.5239 35.6616 40.5085 35.7019 40.5085 35.7439C40.5085 35.7859 40.5239 35.8262 40.5513 35.856C40.5788 35.8857 40.616 35.9024 40.6548 35.9025H44.5461C44.5849 35.9024 44.6222 35.8857 44.6496 35.856C44.677 35.8262 44.6924 35.7859 44.6924 35.7439C44.6924 35.7019 44.677 35.6616 44.6496 35.6318C44.6222 35.6021 44.5849 35.5853 44.5461 35.5852H40.6548Z" fill="#E6E6E6"/>
<path d="M27.389 34.8059C27.3502 34.806 27.3129 34.8227 27.2855 34.8525C27.2581 34.8822 27.2427 34.9225 27.2427 34.9645C27.2427 35.0066 27.2581 35.0469 27.2855 35.0766C27.3129 35.1063 27.3502 35.1231 27.389 35.1232H31.2803C31.3191 35.1231 31.3563 35.1063 31.3838 35.0766C31.4112 35.0469 31.4266 35.0066 31.4266 34.9645C31.4266 34.9225 31.4112 34.8822 31.3838 34.8525C31.3563 34.8227 31.3191 34.806 31.2803 34.8059H27.389Z" fill="#E6E6E6"/>
<path d="M34.1058 34.8059C34.067 34.806 34.0297 34.8227 34.0023 34.8525C33.9749 34.8822 33.9595 34.9225 33.9595 34.9645C33.9595 35.0066 33.9749 35.0469 34.0023 35.0766C34.0297 35.1063 34.067 35.1231 34.1058 35.1232H37.9971C38.0359 35.1231 38.0732 35.1063 38.1006 35.0766C38.128 35.0469 38.1434 35.0066 38.1434 34.9645C38.1434 34.9225 38.128 34.8822 38.1006 34.8525C38.0732 34.8227 38.0359 34.806 37.9971 34.8059H34.1058Z" fill="#E6E6E6"/>
<path d="M40.6548 34.8059C40.616 34.806 40.5788 34.8227 40.5513 34.8525C40.5239 34.8822 40.5085 34.9225 40.5085 34.9645C40.5085 35.0066 40.5239 35.0469 40.5513 35.0766C40.5788 35.1063 40.616 35.1231 40.6548 35.1232H44.5461C44.5849 35.1231 44.6222 35.1063 44.6496 35.0766C44.677 35.0469 44.6924 35.0066 44.6924 34.9645C44.6924 34.9225 44.677 34.8822 44.6496 34.8525C44.6222 34.8227 44.5849 34.806 44.5461 34.8059H40.6548Z" fill="#E6E6E6"/>
<path d="M40.6548 36.3398C40.616 36.3399 40.5788 36.3567 40.5513 36.3864C40.5239 36.4162 40.5085 36.4565 40.5085 36.4985C40.5085 36.5405 40.5239 36.5808 40.5513 36.6106C40.5788 36.6403 40.616 36.6571 40.6548 36.6572H42.4068C42.4457 36.6571 42.4829 36.6403 42.5103 36.6106C42.5377 36.5808 42.5532 36.5405 42.5532 36.4985C42.5532 36.4565 42.5377 36.4162 42.5103 36.3864C42.4829 36.3567 42.4457 36.3399 42.4068 36.3398H40.6548Z" fill="#317BEF"/>
</g>
</g>
<defs>
<filter id="filter0_d_31_58" x="0" y="0" width="61" height="61" filterUnits="userSpaceOnUse" color-interpolation-filters="sRGB">
<feFlood flood-opacity="0" result="BackgroundImageFix"/>
<feColorMatrix in="SourceAlpha" type="matrix" values="0 0 0 0 0 0 0 0 0 0 0 0 0 0 0 0 0 0 127 0" result="hardAlpha"/>
<feOffset dy="4"/>
<feGaussianBlur stdDeviation="2"/>
<feColorMatrix type="matrix" values="0 0 0 0 0.474444 0 0 0 0 0.68303 0 0 0 0 0.933333 0 0 0 0.25 0"/>
<feBlend mode="normal" in2="BackgroundImageFix" result="effect1_dropShadow_31_58"/>
<feBlend mode="normal" in="SourceGraphic" in2="effect1_dropShadow_31_58" result="shape"/>
</filter>
<clipPath id="clip0_31_58">
<rect width="44" height="34" fill="white" transform="translate(10 13)"/>
</clipPath>
</defs>
</svg>
