<svg width="61" height="61" viewBox="0 0 61 61" fill="none" xmlns="http://www.w3.org/2000/svg">
<g filter="url(#filter0_d_31_288)">
<circle cx="30.5" cy="26.5" r="26.5" fill="#7CBFF0" fill-opacity="0.58"/>
<g clip-path="url(#clip0_31_288)">
<path d="M26.2057 20.8066H26.0671V17.1287C26.0671 16.8491 26.0102 16.5723 25.8997 16.3141C25.7893 16.0558 25.6274 15.8211 25.4233 15.6235C25.2192 15.4258 24.9769 15.269 24.7102 15.162C24.4436 15.0551 24.1577 15 23.8691 15H15.8233C15.2404 15 14.6813 15.2243 14.2691 15.6235C13.8569 16.0227 13.6254 16.5641 13.6254 17.1287V37.3059C13.6254 37.5854 13.6822 37.8622 13.7927 38.1205C13.9031 38.3787 14.065 38.6134 14.2691 38.8111C14.4732 39.0087 14.7155 39.1655 14.9822 39.2725C15.2489 39.3795 15.5347 39.4345 15.8233 39.4345H23.8691C24.452 39.4345 25.0111 39.2103 25.4233 38.8111C25.8355 38.4119 26.067 37.8704 26.0671 37.3059V23.4245H26.2057V20.8066Z" fill="#3F3D56"/>
<path d="M23.9578 15.5538H22.9076C22.9559 15.6685 22.9743 15.7929 22.9612 15.9161C22.9482 16.0393 22.9041 16.1575 22.8327 16.2603C22.7614 16.3631 22.6651 16.4473 22.5522 16.5056C22.4393 16.5638 22.3134 16.5943 22.1855 16.5943H17.5762C17.4483 16.5943 17.3224 16.5638 17.2096 16.5056C17.0967 16.4473 17.0004 16.3631 16.929 16.2603C16.8577 16.1575 16.8136 16.0393 16.8005 15.9161C16.7875 15.7929 16.8059 15.6685 16.8542 15.5538H15.8733C15.6577 15.5538 15.4443 15.5949 15.2451 15.6748C15.046 15.7547 14.8651 15.8718 14.7126 16.0194C14.5602 16.167 14.4393 16.3423 14.3568 16.5351C14.2743 16.728 14.2319 16.9347 14.2319 17.1435V37.2911C14.2319 37.4998 14.2743 37.7065 14.3568 37.8994C14.4393 38.0923 14.5602 38.2675 14.7126 38.4151C14.865 38.5627 15.046 38.6798 15.2451 38.7597C15.4443 38.8396 15.6577 38.8807 15.8733 38.8807H23.9578C24.1734 38.8807 24.3868 38.8396 24.5859 38.7597C24.7851 38.6798 24.966 38.5627 25.1185 38.4151C25.2709 38.2675 25.3918 38.0923 25.4743 37.8994C25.5568 37.7065 25.5992 37.4998 25.5992 37.2911V17.1435C25.5992 16.9347 25.5568 16.728 25.4743 16.5351C25.3918 16.3423 25.2709 16.167 25.1185 16.0194C24.966 15.8718 24.7851 15.7547 24.5859 15.6748C24.3868 15.5949 24.1734 15.5538 23.9578 15.5538Z" fill="white"/>
<path d="M28.7845 39.438H11.0466C11.0342 39.438 11.0224 39.4332 11.0136 39.4248C11.0049 39.4163 11 39.4049 11 39.3929C11 39.381 11.0049 39.3695 11.0136 39.361C11.0224 39.3526 11.0342 39.3478 11.0466 39.3478H28.7845C28.7969 39.3478 28.8087 39.3526 28.8174 39.361C28.8262 39.3695 28.8311 39.381 28.8311 39.3929C28.8311 39.4049 28.8262 39.4163 28.8174 39.4248C28.8087 39.4332 28.7969 39.438 28.7845 39.438Z" fill="#CBCBCB"/>
<path d="M19.9155 30.5862C22.0868 30.5862 23.847 28.8815 23.847 26.7786C23.847 24.6758 22.0868 22.9711 19.9155 22.9711C17.7442 22.9711 15.984 24.6758 15.984 26.7786C15.984 28.8815 17.7442 30.5862 19.9155 30.5862Z" fill="#317BEF"/>
<path d="M19.526 28.2311C19.4375 28.2313 19.3514 28.2036 19.2807 28.1522L19.2763 28.149L18.3523 27.4645C18.3095 27.4327 18.2736 27.3931 18.2466 27.3479C18.2196 27.3026 18.2021 27.2527 18.1951 27.201C18.188 27.1492 18.1915 27.0966 18.2055 27.0461C18.2194 26.9957 18.2435 26.9484 18.2763 26.9069C18.3091 26.8655 18.35 26.8307 18.3967 26.8046C18.4434 26.7785 18.4949 26.7615 18.5484 26.7547C18.6018 26.7478 18.6561 26.7512 18.7082 26.7647C18.7603 26.7782 18.8092 26.8015 18.8519 26.8333L19.4504 27.2778L20.8646 25.4909C20.8974 25.4495 20.9383 25.4148 20.985 25.3886C21.0316 25.3625 21.0832 25.3456 21.1366 25.3387C21.19 25.3319 21.2443 25.3353 21.2964 25.3488C21.3485 25.3623 21.3973 25.3856 21.4401 25.4173L21.4402 25.4174L21.4314 25.4292L21.4404 25.4174C21.5267 25.4817 21.5832 25.5764 21.5974 25.6809C21.6116 25.7854 21.5825 25.8911 21.5163 25.9748L19.8529 28.0756C19.8144 28.124 19.765 28.1632 19.7083 28.19C19.6517 28.2169 19.5894 28.2308 19.5263 28.2307L19.526 28.2311Z" fill="white"/>
<path d="M43.3215 39.8122C43.3694 39.7373 43.4257 39.6679 43.4894 39.6051C43.5157 39.5787 43.5434 39.5538 43.572 39.5296C43.7458 39.3797 43.9577 39.2774 44.1859 39.2332C44.4141 39.189 44.6504 39.2044 44.8703 39.2779C45.0903 39.3514 45.2862 39.4803 45.4376 39.6514C45.5891 39.8225 45.6908 40.0295 45.7323 40.2513C45.9243 39.5636 45.4245 38.8862 44.922 38.3659C44.4192 37.8458 43.8445 37.2752 43.8474 36.5624C43.8488 36.1659 44.0491 35.8121 44.3515 35.5497C44.3609 35.5418 44.3702 35.5339 44.3797 35.5262C44.7453 35.2227 45.2156 35.064 45.6967 35.0817C46.5905 35.1281 47.371 35.7099 47.913 36.4C48.7854 37.5104 49.1677 39.0691 48.557 40.3331C48.0197 41.4448 46.874 42.105 45.7047 42.6357C45.5414 42.7099 45.3784 42.7818 45.2158 42.8514C45.2147 42.8517 45.2136 42.8524 45.2125 42.8527C45.2046 42.856 45.1968 42.8594 45.1895 42.8628C45.1559 42.8771 45.1223 42.8915 45.0891 42.9056L45.1045 42.9154L45.1526 42.9456C45.1359 42.9358 45.1194 42.9263 45.1027 42.9165C45.0978 42.9136 45.0925 42.9108 45.0876 42.9078C44.5133 42.5741 43.931 42.221 43.5342 41.7C43.1227 41.159 42.9573 40.3841 43.3215 39.8122Z" fill="#F1F1F1"/>
<path d="M47.1532 38.5559C47.2804 38.8361 47.3647 39.1327 47.4035 39.4365C47.434 39.7073 47.4225 39.9811 47.3695 40.2486C47.2554 40.7985 47.0067 41.3137 46.6442 41.7511C46.3708 42.0831 46.0551 42.3804 45.7046 42.6357C45.5414 42.7099 45.3784 42.7818 45.2158 42.8514C45.2147 42.8517 45.2135 42.8524 45.2124 42.8527C45.2046 42.856 45.1968 42.8594 45.1894 42.8628C45.1559 42.8771 45.1223 42.8915 45.089 42.9056L45.1044 42.9154L45.1525 42.9456C45.1359 42.9358 45.1194 42.9263 45.1027 42.9165C45.0977 42.9136 45.0925 42.9108 45.0876 42.9078C45.2139 42.4796 45.2325 42.0284 45.1417 41.5918C45.051 41.1553 44.8535 40.7462 44.5658 40.3988C44.2766 40.0558 43.9077 39.7838 43.4894 39.6051C43.5157 39.5787 43.5434 39.5538 43.572 39.5296C43.7331 39.6012 43.8874 39.6866 44.033 39.7846C44.5539 40.1332 44.945 40.635 45.1485 41.2157C45.3301 41.7424 45.3528 42.3085 45.2139 42.8473C45.2427 42.8291 45.2716 42.8103 45.2998 42.7917C45.8348 42.4423 46.3279 42.0226 46.6993 41.508C47.0196 41.0731 47.2246 40.5685 47.2962 40.0388C47.3674 39.4602 47.2179 38.8911 46.9511 38.3748C46.6566 37.8224 46.2854 37.3117 45.8479 36.8567C45.4085 36.3891 44.9117 35.9754 44.3686 35.6248C44.3563 35.6168 44.3477 35.6045 44.3445 35.5906C44.3414 35.5766 44.3439 35.562 44.3515 35.5497C44.3573 35.5386 44.3675 35.5301 44.3797 35.5262C44.3859 35.5247 44.3924 35.5245 44.3987 35.5257C44.405 35.527 44.4109 35.5296 44.416 35.5333C44.483 35.5767 44.5495 35.6204 44.6152 35.6654C45.1622 36.0405 45.659 36.4799 46.0941 36.9737C46.5145 37.4496 46.8972 37.9783 47.1532 38.5559Z" fill="white"/>
<path d="M35.444 16.768C35.9051 16.768 36.279 16.4059 36.279 15.9593C36.279 15.5127 35.9051 15.1507 35.444 15.1507C34.9829 15.1507 34.6091 15.5127 34.6091 15.9593C34.6091 16.4059 34.9829 16.768 35.444 16.768Z" fill="#F1F1F1"/>
<path d="M45.8261 27.5892C46.1072 27.5892 46.3351 27.3685 46.3351 27.0962C46.3351 26.8239 46.1072 26.6032 45.8261 26.6032C45.5449 26.6032 45.317 26.8239 45.317 27.0962C45.317 27.3685 45.5449 27.5892 45.8261 27.5892Z" fill="#F1F1F1"/>
<path d="M30.9281 28.9419C31.2092 28.9419 31.4371 28.7211 31.4371 28.4489C31.4371 28.1766 31.2092 27.9559 30.9281 27.9559C30.6469 27.9559 30.419 28.1766 30.419 28.4489C30.419 28.7211 30.6469 28.9419 30.9281 28.9419Z" fill="#F1F1F1"/>
<path d="M31.2155 43H48.9535C48.9658 43 48.9777 42.9952 48.9864 42.9868C48.9951 42.9783 49 42.9669 49 42.9549C49 42.943 48.9951 42.9315 48.9864 42.923C48.9777 42.9146 48.9658 42.9098 48.9535 42.9098H31.2155C31.2032 42.9098 31.1913 42.9146 31.1826 42.923C31.1739 42.9315 31.1689 42.943 31.1689 42.9549C31.1689 42.9669 31.1739 42.9783 31.1826 42.9868C31.1913 42.9952 31.2032 43 31.2155 43Z" fill="#CBCBCB"/>
<path d="M46.996 19.3571C47.0193 19.197 46.9811 19.0341 46.8887 18.8994C46.7963 18.7647 46.656 18.6675 46.4946 18.6262C46.3331 18.585 46.1616 18.6025 46.0126 18.6755C45.8636 18.7485 45.7474 18.8719 45.686 19.0223L44.2466 20.6204L44.669 21.7628L46.1166 19.8955C46.211 19.9248 46.311 19.9337 46.4094 19.9215C46.5077 19.9094 46.6022 19.8765 46.686 19.8251C46.7699 19.7738 46.8411 19.7053 46.8946 19.6245C46.9482 19.5436 46.9828 19.4523 46.996 19.3571Z" fill="#FFB7B7"/>
<path d="M41.0294 25.5755L45.8075 20.637L45.163 19.6447L39.1701 24.5532L41.0294 25.5755Z" fill="#3F3D56"/>
<path d="M39.9631 22.5749C40.8887 22.5749 41.6391 21.8482 41.6391 20.9517C41.6391 20.0552 40.8887 19.3285 39.9631 19.3285C39.0374 19.3285 38.287 20.0552 38.287 20.9517C38.287 21.8482 39.0374 22.5749 39.9631 22.5749Z" fill="#2F2E41"/>
<path d="M40.0978 20.0347C40.4584 19.6805 40.8949 19.4072 41.3764 19.234C41.6854 19.1231 42.0218 19.0546 42.345 19.1176C42.6681 19.1805 42.9737 19.397 43.0638 19.7041C43.1375 19.9551 43.0614 20.2255 42.947 20.4618C42.8326 20.6981 42.6799 20.9173 42.5874 21.1625C42.493 21.4126 42.4646 21.6816 42.5048 21.9451C42.545 22.2086 42.6525 22.4582 42.8176 22.6712C42.9826 22.8842 43.2 23.054 43.45 23.165C43.6999 23.276 43.9746 23.3248 44.2489 23.307C43.9315 23.3482 43.6388 23.4927 43.3285 23.5696C43.0182 23.6465 42.6519 23.6413 42.4213 23.426C42.1773 23.1982 42.1724 22.8278 42.1842 22.4998C42.2017 22.0121 42.2193 21.5245 42.2368 21.0369C42.2457 20.7882 42.2534 20.5315 42.1608 20.2994C42.0682 20.0673 41.8481 19.8641 41.5912 19.8662C41.3964 19.8678 41.2241 19.982 41.0679 20.0947C40.9118 20.2074 40.7465 20.3276 40.5525 20.3443C40.3586 20.3611 40.1371 20.2221 40.1516 20.034L40.0978 20.0347Z" fill="#2F2E41"/>
<path d="M33.5973 31.8506C33.4364 31.8939 33.2647 31.8785 33.1147 31.8074C32.9648 31.7363 32.8469 31.6144 32.7836 31.4647C32.7202 31.3151 32.7158 31.1481 32.771 30.9955C32.8263 30.8429 32.9374 30.7152 33.0834 30.6366L34.5313 29.0457L35.756 29.302L34.0335 30.9359C34.0759 31.0228 34.098 31.1176 34.0984 31.2136C34.0989 31.3097 34.0775 31.4047 34.0359 31.4919C33.9944 31.5791 33.9335 31.6564 33.8578 31.7184C33.782 31.7804 33.6931 31.8255 33.5973 31.8506H33.5973Z" fill="#FFB7B7"/>
<path d="M38.3611 26.1551L34.7523 30.5423L33.6522 30.0531L37.894 23.6575L38.3611 26.1551Z" fill="#3F3D56"/>
<path d="M35.4816 39.4024L34.6215 39.3894L34.7249 42.2284H35.4814L35.4816 39.4024Z" fill="#FFB7B7"/>
<path d="M35.6744 41.9892L34.1846 41.9892H34.1845C33.9327 41.9892 33.6912 42.086 33.5132 42.2585C33.3351 42.4309 33.2351 42.6648 33.235 42.9087V42.9385L35.6744 42.9386L35.6744 41.9892Z" fill="#2F2E41"/>
<path d="M41.1762 38.6494L40.2366 39.2336L42.116 41.4233L42.7526 41.0275L41.1762 38.6494Z" fill="#FFB7B7"/>
<path d="M42.7816 40.7253L41.5279 41.5048L41.5278 41.5048C41.316 41.6366 41.1668 41.8445 41.1132 42.0827C41.0595 42.321 41.1058 42.5701 41.2419 42.7754L41.2585 42.8005L43.3112 41.5242L42.7816 40.7253Z" fill="#2F2E41"/>
<path d="M41.5109 29.9802C41.5109 29.9802 39.4233 23.2653 38.7525 23.1746C38.0816 23.0838 37.0006 24.8975 37.0006 24.8975C35.5991 26.6293 34.154 32.2389 34.154 32.2389C34.154 32.2389 36.5631 32.3849 38.3242 33.2923C40.0853 34.1997 42.1636 33.2464 42.1636 33.2464L41.5109 29.9802Z" fill="#3F3D56"/>
<path opacity="0.1" d="M41.5109 29.9802C41.5109 29.9802 39.4233 23.2653 38.7525 23.1746C38.0816 23.0838 37.2752 24.9159 37.2752 24.9159C36.5768 27.7114 34.154 32.2389 34.154 32.2389C34.154 32.2389 36.5631 32.3849 38.3242 33.2923C40.0853 34.1997 42.1636 33.2464 42.1636 33.2464L41.5109 29.9802Z" fill="black"/>
<path d="M39.7982 27.9712V31.3454L40.2083 36.2332L42.2567 39.9304L41.2791 40.6068L38.4857 37.0898L37.3808 33.5978L35.6457 41.3282L34.3422 41.238L35.2475 30.5199L36.9655 27.5031L39.7982 27.9712Z" fill="#2F2E41"/>
<path d="M37.6934 24.7076C37.0416 25.3388 37.6469 26.0151 37.6469 26.0151L36.902 27.6383L39.835 28.4048L40.86 23.9691L40.1617 23.2477C38.765 23.2026 38.7642 23.1745 38.7642 23.1745C38.5195 23.4065 37.6934 24.7076 37.6934 24.7076Z" fill="#317BEF"/>
<path d="M40.9782 23.5095C40.8449 23.4143 40.6935 23.3456 40.5327 23.3075C40.3719 23.2693 40.2049 23.2624 40.0413 23.2872C39.8777 23.312 39.7208 23.368 39.5798 23.4519C39.4387 23.5359 39.3162 23.6461 39.2194 23.7762C38.482 24.7705 37.8002 26.376 38.7396 28.3784C40.248 31.5937 41.5606 33.2396 42.0943 33.2394C42.1176 33.2396 42.1407 33.2361 42.1628 33.229C42.4913 33.1211 42.9662 32.5828 43.0522 32.1084C43.083 31.9387 43.0757 31.7022 42.866 31.5398C42.2638 31.0733 41.1826 29.6207 40.8454 27.7089C40.659 26.6525 41.0204 25.6902 41.3565 25.069C41.4984 24.8119 41.5399 24.5139 41.4734 24.2296C41.4069 23.9454 41.2368 23.6938 40.9944 23.5211L40.9782 23.5095Z" fill="#3F3D56"/>
<path d="M40.0493 22.4154C40.6471 22.0989 40.8669 21.3729 40.54 20.7939C40.2132 20.2148 39.4636 20.002 38.8657 20.3186C38.2678 20.6351 38.0481 21.3611 38.3749 21.9401C38.7018 22.5191 39.4514 22.7319 40.0493 22.4154Z" fill="#FFB7B7"/>
<path d="M37.7224 21.2767H39.5039L39.5222 21.0289L39.6135 21.2767H39.8878L39.924 20.7857L40.1051 21.2767H40.6359V21.2523C40.6355 20.9105 40.4951 20.5829 40.2455 20.3412C39.996 20.0995 39.6576 19.9635 39.3047 19.9632H39.0536C38.7006 19.9635 38.3623 20.0995 38.1127 20.3412C37.8632 20.5829 37.7228 20.9105 37.7224 21.2523V21.2767Z" fill="#2F2E41"/>
<path d="M40.3667 22.167L41.127 21.9281V20.1401H39.691L39.7265 20.1745C40.2212 20.6529 40.7713 22.3503 40.3667 22.167Z" fill="#2F2E41"/>
</g>
</g>
<defs>
<filter id="filter0_d_31_288" x="0" y="0" width="61" height="61" filterUnits="userSpaceOnUse" color-interpolation-filters="sRGB">
<feFlood flood-opacity="0" result="BackgroundImageFix"/>
<feColorMatrix in="SourceAlpha" type="matrix" values="0 0 0 0 0 0 0 0 0 0 0 0 0 0 0 0 0 0 127 0" result="hardAlpha"/>
<feOffset dy="4"/>
<feGaussianBlur stdDeviation="2"/>
<feColorMatrix type="matrix" values="0 0 0 0 0.474444 0 0 0 0 0.68303 0 0 0 0 0.933333 0 0 0 0.25 0"/>
<feBlend mode="normal" in2="BackgroundImageFix" result="effect1_dropShadow_31_288"/>
<feBlend mode="normal" in="SourceGraphic" in2="effect1_dropShadow_31_288" result="shape"/>
</filter>
<clipPath id="clip0_31_288">
<rect width="38" height="28" fill="white" transform="translate(11 15)"/>
</clipPath>
</defs>
</svg>
