<svg width="61" height="61" viewBox="0 0 61 61" fill="none" xmlns="http://www.w3.org/2000/svg">
<g filter="url(#filter0_d_27_703)">
<circle cx="30.5" cy="26.5" r="26.5" fill="#7CBFF0" fill-opacity="0.58"/>
<path opacity="0.1" d="M43.4462 15.7111V30.6889C43.4463 31.1762 43.3398 31.6589 43.1326 32.1092C42.9254 32.5595 42.6216 32.9687 42.2386 33.3133C41.8556 33.658 41.4009 33.9313 40.9005 34.1178C40.4001 34.3042 39.8637 34.4001 39.3221 34.4H22.6779C21.746 34.4011 20.8414 34.1172 20.1123 33.5949C19.8106 33.3786 19.5438 33.1256 19.3194 32.8433C18.8213 32.2143 18.5537 31.4612 18.5538 30.6889V15.7111C18.5538 15.6118 18.5581 15.5136 18.5667 15.4164C18.5832 15.2265 18.616 15.0381 18.665 14.8528C18.8798 14.0405 19.3927 13.317 20.1209 12.7993C20.8491 12.2817 21.7499 12.0001 22.6779 12H39.3221C40.2501 12.0001 41.151 12.2817 41.8791 12.7993C42.6073 13.317 43.1202 14.0405 43.335 14.8528C43.384 15.0381 43.4169 15.2265 43.4333 15.4164C43.4419 15.5136 43.4462 15.6118 43.4462 15.7111Z" fill="#09090A"/>
<path opacity="0.1" d="M31.3131 23.7987H43.4462V24.3623H31.3131V28.2717H43.4462V28.8352H31.3131V34.4H30.6869V28.8352H18.5538V28.2717H30.6869V24.3623H18.5538V23.7987H30.6869V19.8893H18.5538V19.3258H30.6869V15.4164H18.5667C18.5832 15.2265 18.616 15.0381 18.665 14.8528H30.6869V12H31.3131V14.8528H43.335C43.384 15.0381 43.4169 15.2265 43.4333 15.4164H31.3131V19.3258H43.4462V19.8893H31.3131V23.7987Z" fill="#317BEF"/>
<path opacity="0.1" d="M31 40C42.0457 40 51 38.7358 51 37.1764C51 35.617 42.0457 34.3528 31 34.3528C19.9543 34.3528 11 35.617 11 37.1764C11 38.7358 19.9543 40 31 40Z" fill="#181818"/>
<path d="M46.3307 36.1614C46.8776 36.1614 47.3209 36.0846 47.3209 35.9899C47.3209 35.8951 46.8776 35.8183 46.3307 35.8183C45.7839 35.8183 45.3405 35.8951 45.3405 35.9899C45.3405 36.0846 45.7839 36.1614 46.3307 36.1614Z" fill="#317BEF"/>
<path d="M46.3143 36.0532C46.3781 36.0532 46.4298 35.9924 46.4298 35.9173C46.4298 35.8422 46.3781 35.7813 46.3143 35.7813C46.2505 35.7813 46.1989 35.8422 46.1989 35.9173C46.1989 35.9924 46.2505 36.0532 46.3143 36.0532Z" fill="#3F3D56"/>
<path d="M46.3143 35.887C46.3781 35.887 46.4298 35.8261 46.4298 35.751C46.4298 35.6759 46.3781 35.6151 46.3143 35.6151C46.2505 35.6151 46.1989 35.6759 46.1989 35.751C46.1989 35.8261 46.2505 35.887 46.3143 35.887Z" fill="#3F3D56"/>
<path d="M46.3143 35.7211C46.3781 35.7211 46.4298 35.6603 46.4298 35.5852C46.4298 35.5101 46.3781 35.4492 46.3143 35.4492C46.2505 35.4492 46.1989 35.5101 46.1989 35.5852C46.1989 35.6603 46.2505 35.7211 46.3143 35.7211Z" fill="#3F3D56"/>
<path d="M46.3143 35.5552C46.3781 35.5552 46.4298 35.4944 46.4298 35.4193C46.4298 35.3442 46.3781 35.2833 46.3143 35.2833C46.2505 35.2833 46.1989 35.3442 46.1989 35.4193C46.1989 35.4944 46.2505 35.5552 46.3143 35.5552Z" fill="#3F3D56"/>
<path d="M46.3143 35.389C46.3781 35.389 46.4298 35.3281 46.4298 35.253C46.4298 35.178 46.3781 35.1171 46.3143 35.1171C46.2505 35.1171 46.1989 35.178 46.1989 35.253C46.1989 35.3281 46.2505 35.389 46.3143 35.389Z" fill="#3F3D56"/>
<path d="M46.3143 35.2231C46.3781 35.2231 46.4298 35.1622 46.4298 35.0872C46.4298 35.0121 46.3781 34.9512 46.3143 34.9512C46.2505 34.9512 46.1989 35.0121 46.1989 35.0872C46.1989 35.1622 46.2505 35.2231 46.3143 35.2231Z" fill="#3F3D56"/>
<path d="M46.3143 35.0572C46.3781 35.0572 46.4298 34.9963 46.4298 34.9213C46.4298 34.8462 46.3781 34.7853 46.3143 34.7853C46.2505 34.7853 46.1989 34.8462 46.1989 34.9213C46.1989 34.9963 46.2505 35.0572 46.3143 35.0572Z" fill="#3F3D56"/>
<path d="M46.7456 33.7854C46.7614 33.7674 46.7758 33.7483 46.7886 33.7284L46.4857 33.6836L46.8133 33.6857C46.8447 33.6242 46.8618 33.5575 46.8636 33.4898C46.8654 33.4221 46.8519 33.3548 46.8239 33.292L46.3843 33.4973L46.7898 33.2289C46.752 33.1695 46.7009 33.1178 46.6399 33.077C46.5788 33.0362 46.509 33.0072 46.4349 32.9917C46.3608 32.9763 46.2839 32.9748 46.2091 32.9874C46.1343 32.9999 46.0632 33.0262 46.0003 33.0646C45.9373 33.103 45.8838 33.1527 45.8432 33.2106C45.8025 33.2684 45.7756 33.3332 45.7641 33.4009C45.7526 33.4686 45.7567 33.5376 45.7762 33.6038C45.7957 33.67 45.8302 33.7318 45.8775 33.7854C45.853 33.8135 45.8319 33.8439 45.8145 33.8759L46.2059 34.0598L45.7867 33.933C45.7571 34.0113 45.7498 34.095 45.7653 34.1765C45.7808 34.258 45.8187 34.3347 45.8755 34.3997C45.8114 34.473 45.7716 34.561 45.7605 34.6537C45.7494 34.7465 45.7675 34.8401 45.8128 34.924C45.8581 35.0079 45.9287 35.0786 46.0165 35.1281C46.1044 35.1776 46.2059 35.2039 46.3096 35.2039C46.4132 35.2039 46.5148 35.1776 46.6026 35.1281C46.6905 35.0786 46.7611 35.0079 46.8063 34.924C46.8516 34.8401 46.8697 34.7465 46.8587 34.6537C46.8476 34.561 46.8077 34.473 46.7436 34.3997C46.8202 34.3121 46.8618 34.2039 46.8618 34.0925C46.8618 33.9811 46.8202 33.873 46.7436 33.7854H46.7456Z" fill="#191C20"/>
<path opacity="0.1" d="M45.7593 34.0925C45.759 34.2039 45.8003 34.3121 45.8767 34.3996C45.8127 34.473 45.7728 34.561 45.7617 34.6537C45.7506 34.7465 45.7688 34.8401 45.814 34.924C45.8593 35.0079 45.9299 35.0786 46.0178 35.1281C46.1056 35.1776 46.2072 35.2039 46.3108 35.2039C46.4144 35.2039 46.516 35.1776 46.6038 35.1281C46.6917 35.0786 46.7623 35.0079 46.8076 34.924C46.8528 34.8401 46.871 34.7465 46.8599 34.6537C46.8488 34.561 46.8089 34.473 46.7448 34.3996C46.8196 34.3151 45.7593 34.0369 45.7593 34.0925Z" fill="black"/>
<path d="M42.6829 31.6176H19.0822V36.4956H42.6829V31.6176Z" fill="#46455B"/>
<path d="M19.2387 26.5635L17.0078 28.078L18.7299 29.4868L19.7084 28.078L21.0391 26.5635H19.2387Z" fill="#46455B"/>
<path d="M42.2916 28.395L41.9785 28.078L39.9824 27.0566L41.822 27.0214L44.6791 28.078L43.5049 28.7472L42.2916 28.395Z" fill="#46455B"/>
<path d="M19.0822 28.4654L21.0391 26.5635V30.9308L19.7084 31.917L18.8865 30.8956L19.0822 28.4654Z" fill="#46455B"/>
<path d="M42.3308 29.2403L41.9785 28.078L41.3131 27.3032L39.9824 27.0566V31.917H42.683L42.3308 29.2403Z" fill="#46455B"/>
<path d="M21.4716 25.2604H39.7456C39.907 25.2604 40.0618 25.3181 40.176 25.4208C40.2901 25.5235 40.3542 25.6628 40.3542 25.808V30.8252H20.863V25.808C20.863 25.6628 20.9272 25.5235 21.0413 25.4208C21.1554 25.3181 21.3102 25.2604 21.4716 25.2604Z" fill="#46455B"/>
<path d="M19.7084 31.917L21.0392 30.4377H39.9824L41.9785 31.917H19.7084Z" fill="#46455B"/>
<path opacity="0.05" d="M19.7084 31.917L21.0392 30.4377H39.9824L41.9785 31.917H19.7084Z" fill="black"/>
<path d="M19.7084 28.078H17.0078V36.4956H19.7084V28.078Z" fill="#46455B"/>
<path opacity="0.05" d="M19.7084 28.078H17.0078V36.4956H19.7084V28.078Z" fill="white"/>
<path d="M44.6791 28.078H41.9785V36.4956H44.6791V28.078Z" fill="#46455B"/>
<path opacity="0.05" d="M44.6791 28.078H41.9785V36.4956H44.6791V28.078Z" fill="white"/>
<path d="M28.2211 26.5107C29.9504 26.5107 31.3523 24.8471 31.3523 22.795C31.3523 20.7428 29.9504 19.0793 28.2211 19.0793C26.4919 19.0793 25.09 20.7428 25.09 22.795C25.09 24.8471 26.4919 26.5107 28.2211 26.5107Z" fill="#2F2E41"/>
<path d="M29.591 21.1924H26.1077V25.5597H29.591V21.1924Z" fill="#2F2E41"/>
<path opacity="0.1" d="M29.591 21.1924H26.1077V25.5597H29.591V21.1924Z" fill="black"/>
<path d="M26.3605 23.7537C26.2515 23.8731 26.1108 23.9659 25.9514 24.0234C25.792 24.0809 25.619 24.1012 25.4485 24.0826C25.4329 24.3017 25.5981 24.494 25.7542 24.6627L26.9765 25.9824C26.9813 25.9928 26.9892 26.0019 26.9994 26.0086C27.0096 26.0153 27.0216 26.0193 27.0341 26.0202C27.0466 26.0212 27.0592 26.019 27.0704 26.0139C27.0817 26.0089 27.0912 26.0011 27.0979 25.9915L28.9648 24.3978C28.7785 24.4683 28.5581 24.3566 28.456 24.1995C28.3538 24.0425 28.3436 23.8537 28.3343 23.6712C28.3207 23.3989 28.3076 23.1267 28.2951 22.8548C28.292 22.7943 28.2853 22.7273 28.2356 22.6865C28.197 22.6603 28.1508 22.6445 28.1025 22.6411C27.8078 22.5956 26.8892 22.3593 26.719 22.6382C26.6407 22.7654 26.6759 23.0133 26.6407 23.157C26.5879 23.3701 26.5131 23.5825 26.3605 23.7537Z" fill="#FBBEBE"/>
<path opacity="0.1" d="M26.3605 23.7537C26.2515 23.8731 26.1108 23.9659 25.9514 24.0234C25.792 24.0809 25.619 24.1012 25.4485 24.0826C25.4329 24.3017 25.5981 24.494 25.7542 24.6627L26.9765 25.9824C26.9813 25.9928 26.9892 26.0019 26.9994 26.0086C27.0096 26.0153 27.0216 26.0193 27.0341 26.0202C27.0466 26.0212 27.0592 26.019 27.0704 26.0139C27.0817 26.0089 27.0912 26.0011 27.0979 25.9915L28.9648 24.3978C28.7785 24.4683 28.5581 24.3566 28.456 24.1995C28.3538 24.0425 28.3436 23.8537 28.3343 23.6712C28.3207 23.3989 28.3076 23.1267 28.2951 22.8548C28.292 22.7943 28.2853 22.7273 28.2356 22.6865C28.197 22.6603 28.1508 22.6445 28.1025 22.6411C27.8078 22.5956 26.8892 22.3593 26.719 22.6382C26.6407 22.7654 26.6759 23.0133 26.6407 23.157C26.5879 23.3701 26.5131 23.5825 26.3605 23.7537Z" fill="black"/>
<path d="M27.7123 23.4818C28.7283 23.4818 29.5519 22.7407 29.5519 21.8264C29.5519 20.9122 28.7283 20.1711 27.7123 20.1711C26.6964 20.1711 25.8728 20.9122 25.8728 21.8264C25.8728 22.7407 26.6964 23.4818 27.7123 23.4818Z" fill="#FBBEBE"/>
<path d="M27.0469 25.1597L26.7518 24.3225C26.6344 23.9872 26.4677 23.6072 26.0959 23.499C25.861 23.4314 25.6078 23.4934 25.3632 23.4747C24.8872 23.4377 24.4238 23.0972 23.9788 23.2532C23.4309 23.4448 23.4356 24.202 22.9491 24.4993C22.9491 25.2069 23.2031 25.8641 23.3405 26.5604C23.4779 27.2567 23.5174 28.0083 23.1589 28.6384C23.007 28.9053 22.7898 29.1378 22.6278 29.3998C22.3621 29.8319 22.2535 30.328 22.317 30.8185C24.3945 30.842 26.4722 30.8476 28.5503 30.8354C28.5311 30.5931 28.4109 30.3543 28.3914 30.112C28.3796 30.0388 28.386 29.9642 28.4101 29.8936C28.4559 29.7879 28.5726 29.7249 28.6724 29.6562C28.8061 29.5635 28.9193 29.449 29.0062 29.3188C29.1448 29.1114 29.2105 28.8722 29.2747 28.6369L30.0528 25.7841C30.1456 25.4442 30.2356 25.0734 30.0743 24.755C29.8974 24.4052 29.4732 24.2235 29.0814 24.0703C28.8465 23.9777 28.5765 23.884 28.3377 23.9692C28.142 24.0397 28.0191 24.2084 27.8955 24.3612C27.6562 24.6623 27.3705 24.9311 27.0469 25.1597Z" fill="#F86D70"/>
<path opacity="0.1" d="M22.9283 24.7504C22.8673 24.9561 22.9013 25.1758 22.8563 25.3843C22.7808 25.7334 22.4978 26.0109 22.3084 26.3223C22.0148 26.8057 21.9405 27.3727 22.101 27.9043C22.1487 28.0597 22.2336 28.2259 22.4011 28.283C22.5209 28.3242 22.6548 28.2985 22.7828 28.3087C22.9518 28.3221 23.1276 28.3974 23.2837 28.3376C23.4767 28.2636 23.515 28.0378 23.5362 27.8501C23.5849 27.4148 23.689 26.9859 23.8465 26.572C24.0031 26.1578 24.218 25.7468 24.2148 25.309C24.2125 25.0004 23.7734 25.2843 23.4869 25.1015C23.1636 24.8965 23.0344 24.395 22.9283 24.7504Z" fill="black"/>
<path d="M22.8501 24.7152C22.789 24.9208 22.8231 25.1406 22.7781 25.3491C22.7025 25.6982 22.4196 25.9757 22.2301 26.287C21.9366 26.7705 21.8622 27.3374 22.0227 27.8691C22.0705 28.0244 22.1554 28.1907 22.3229 28.2477C22.4427 28.2889 22.5765 28.2632 22.7045 28.2734C22.8736 28.2868 23.0493 28.3622 23.2055 28.3023C23.3984 28.2284 23.4368 28.0026 23.4579 27.8149C23.5066 27.3795 23.6108 26.9507 23.7683 26.5367C23.9249 26.1226 24.1397 25.7115 24.1366 25.2737C24.1342 24.9652 23.9836 24.6243 23.6971 24.4415C23.3738 24.2365 22.9562 24.3598 22.8501 24.7152Z" fill="#F86D70"/>
<path d="M25.5283 22.7784C25.7632 22.6601 25.9945 22.5319 26.2364 22.422C26.6145 22.2519 27.0395 22.1191 27.337 21.8585C27.3523 21.8453 27.3711 21.8359 27.3916 21.8311C27.4121 21.8264 27.4336 21.8264 27.4541 21.8313C27.4746 21.8361 27.4933 21.8456 27.5086 21.8588C27.5238 21.872 27.5351 21.8885 27.5413 21.9067C27.6692 22.2818 27.8207 22.6501 27.9949 23.0098C28.1452 23.3197 28.3127 23.624 28.4254 23.9467C28.5037 24.171 28.5526 24.4045 28.6501 24.6204C28.7773 24.9022 28.9804 25.1529 29.182 25.3988C29.2559 25.4896 29.3323 25.5819 29.436 25.6453C29.5816 25.7344 29.7988 25.7915 29.8141 25.9493C29.625 26.0722 29.3679 26.0317 29.135 26.0299C28.9021 26.0282 28.6653 26.0715 28.4352 26.1226C28.1663 26.1778 27.9042 26.2566 27.6524 26.3578C27.4074 26.4617 27.1828 26.5984 26.9557 26.7343L24.8747 27.9906C24.7217 27.8332 24.7276 27.6032 24.6947 27.3947C24.6666 27.2447 24.6263 27.0967 24.5741 26.952L24.3667 26.3233C24.2681 26.0246 24.171 25.7263 24.0599 25.4308C23.9683 25.1843 23.8665 24.9353 23.6873 24.7317C23.4712 24.4852 23.1604 24.3253 22.8908 24.127C22.7953 24.0565 22.701 23.9762 22.6653 23.8699C22.6535 23.8351 22.6502 23.7985 22.6556 23.7625C22.661 23.7265 22.675 23.692 22.6966 23.6614C22.7538 23.5871 22.8356 23.598 22.9264 23.5849C23.1479 23.5532 23.3676 23.5132 23.5855 23.4648C24.0177 23.3683 24.4402 23.2394 24.8485 23.0795C25.0805 22.9894 25.3071 22.889 25.5283 22.7784Z" fill="#BBBDC8"/>
<path opacity="0.1" d="M25.6137 23.039C25.82 22.9362 26.0203 22.8235 26.2313 22.7284C26.5616 22.5798 26.9319 22.4643 27.1914 22.2378C27.2047 22.2262 27.2211 22.2179 27.239 22.2137C27.2569 22.2095 27.2758 22.2095 27.2937 22.2137C27.3116 22.2179 27.328 22.2262 27.3414 22.2377C27.3547 22.2493 27.3645 22.2637 27.3699 22.2797C27.4814 22.6069 27.6135 22.9282 27.7656 23.2419C27.8967 23.5124 28.0427 23.778 28.1401 24.0594C28.2074 24.2548 28.2509 24.4574 28.3358 24.6472C28.4466 24.8937 28.6243 25.1117 28.7996 25.3262C28.8595 25.4086 28.9344 25.4812 29.0211 25.5411C29.1487 25.6189 29.3382 25.6686 29.3511 25.8066C29.1863 25.9123 28.962 25.8771 28.7589 25.8771C28.5525 25.8808 28.3475 25.908 28.1487 25.9581C27.9144 26.0061 27.6859 26.0749 27.4665 26.1634C27.2549 26.2593 27.0517 26.3695 26.8587 26.4931L25.043 27.5874C24.9096 27.45 24.9151 27.2482 24.8865 27.0672C24.8622 26.9359 24.8271 26.8064 24.7816 26.6797L24.6004 26.1314C24.5143 25.8707 24.4282 25.6105 24.3327 25.3527C24.2544 25.1375 24.1644 24.9205 24.0078 24.7426C23.8192 24.5282 23.5483 24.3883 23.3127 24.2143C23.2297 24.1534 23.1472 24.083 23.117 23.9903C23.1067 23.9601 23.1038 23.9281 23.1085 23.8968C23.1133 23.8654 23.1255 23.8353 23.1444 23.8086C23.1941 23.7434 23.2657 23.753 23.3448 23.7417C23.5382 23.7142 23.7298 23.679 23.9198 23.636C24.2969 23.5521 24.6654 23.4397 25.0215 23.3C25.2237 23.2216 25.4211 23.1346 25.6137 23.039Z" fill="black"/>
<path d="M24.854 24.4729C24.9405 24.4729 25.0106 24.4098 25.0106 24.332C25.0106 24.2542 24.9405 24.1911 24.854 24.1911C24.7675 24.1911 24.6974 24.2542 24.6974 24.332C24.6974 24.4098 24.7675 24.4729 24.854 24.4729Z" fill="#BBBDC8"/>
<path d="M26.5233 23.7772C26.6097 23.7772 26.6798 23.7142 26.6798 23.6364C26.6798 23.5586 26.6097 23.4955 26.5233 23.4955C26.4368 23.4955 26.3667 23.5586 26.3667 23.6364C26.3667 23.7142 26.4368 23.7772 26.5233 23.7772Z" fill="#BBBDC8"/>
<path d="M25.6434 26.007C25.7299 26.007 25.8 25.944 25.8 25.8662C25.8 25.7884 25.7299 25.7253 25.6434 25.7253C25.557 25.7253 25.4869 25.7884 25.4869 25.8662C25.4869 25.944 25.557 26.007 25.6434 26.007Z" fill="#BBBDC8"/>
<path d="M27.3127 25.3115C27.3991 25.3115 27.4692 25.2484 27.4692 25.1706C27.4692 25.0928 27.3991 25.0297 27.3127 25.0297C27.2262 25.0297 27.1561 25.0928 27.1561 25.1706C27.1561 25.2484 27.2262 25.3115 27.3127 25.3115Z" fill="#BBBDC8"/>
<path d="M23.2227 26.7516C23.3792 26.7111 23.544 26.6667 23.6591 26.5628C23.7483 26.4818 23.798 26.373 23.8607 26.2737C23.9855 26.0754 24.1832 25.8996 24.4317 25.8559C24.6802 25.8123 24.9722 25.9415 25.0254 26.1645C25.0599 26.3096 24.9925 26.4571 24.9256 26.5931C24.8254 26.7967 24.7123 27.0101 24.5057 27.133C24.3248 27.2404 24.0943 27.264 23.9166 27.3757C23.7601 27.4743 23.6614 27.6303 23.5252 27.7518C23.3472 27.9096 23.1117 28.0041 22.8622 28.0178C22.8243 28.0218 22.786 28.0171 22.7507 28.004C22.7161 27.9856 22.6871 27.9598 22.6661 27.929C22.5511 27.7881 22.4344 27.643 22.3734 27.4764C22.1608 26.8956 22.7624 26.8703 23.2227 26.7516Z" fill="#FBBEBE"/>
<path d="M27.3926 26.8291C27.3397 26.5452 27.3327 26.2356 27.1378 26.0074C26.9745 25.8168 26.7033 25.7203 26.4364 25.7041C26.3581 25.6992 26.2661 25.7063 26.2207 25.764C26.1949 25.8048 26.1846 25.852 26.1914 25.8986C26.2079 26.2593 26.3574 26.6048 26.6164 26.8805C26.7139 26.9833 26.827 27.077 26.8951 27.1975C26.9546 27.3014 26.9765 27.4201 27.0317 27.5257C27.1037 27.6634 27.2274 27.7723 27.3221 27.8991C27.4564 28.0807 27.526 28.2948 27.5217 28.5129C27.625 28.3611 27.6125 28.1713 27.6223 27.9934C27.6352 27.743 27.8301 27.606 27.7037 27.4017C27.5773 27.1975 27.4383 27.0774 27.3926 26.8291Z" fill="#FBBEBE"/>
<path opacity="0.1" d="M28.8372 26.5463C28.7382 26.7787 28.6873 27.0274 28.5706 27.2531C28.5399 27.3238 28.4872 27.3849 28.4188 27.4292C28.2935 27.4997 28.128 27.456 28.0035 27.3859C27.8791 27.3158 27.7687 27.2193 27.6329 27.1728C27.5718 27.7078 27.0779 28.1787 26.4877 28.2647C26.8399 28.5559 27.211 28.8796 27.2904 29.3037C27.3053 29.3815 27.3104 29.4643 27.3566 29.5315C27.4309 29.639 27.5879 29.6742 27.7288 29.6724C28.0869 29.6699 28.4153 29.4998 28.7143 29.3202C28.8153 29.2603 28.9174 29.1962 28.9847 29.1061C29.0521 29.0159 29.081 28.9014 29.1065 28.7923C29.2794 28.0524 29.4523 27.3122 29.625 26.5716C29.672 26.3705 29.6642 25.9754 29.3174 26.0152C29.0822 26.0461 28.91 26.3762 28.8372 26.5463Z" fill="black"/>
<path d="M28.9154 26.5463C28.8164 26.7787 28.7655 27.0274 28.6489 27.2531C28.6181 27.3238 28.5654 27.3849 28.497 27.4292C28.3718 27.4997 28.2062 27.456 28.0818 27.3859C27.9573 27.3158 27.8469 27.2193 27.7111 27.1728C27.6501 27.7078 27.1561 28.1787 26.5659 28.2647C26.9182 28.5559 27.2892 28.8796 27.3687 29.3037C27.3835 29.3815 27.3886 29.4643 27.4348 29.5315C27.5092 29.639 27.6661 29.6742 27.807 29.6724C28.1651 29.6699 28.4935 29.4998 28.7925 29.3202C28.8935 29.2603 28.9957 29.1962 29.063 29.1061C29.1303 29.0159 29.1593 28.9014 29.1847 28.7923C29.3577 28.0524 29.5306 27.3122 29.7033 26.5716C29.7503 26.3705 29.7424 25.9754 29.3957 26.0152C29.1604 26.0461 28.9882 26.3762 28.9154 26.5463Z" fill="#F86D70"/>
<path d="M23.2059 27.9199C23.1918 27.9843 23.1209 28.0234 23.0567 28.0544C22.9327 28.1146 22.7976 28.177 22.6579 28.1601C22.5182 28.1431 22.4012 28.0502 22.3096 27.9516C22.264 27.9046 22.2246 27.8531 22.1922 27.798C22.0509 27.5469 22.0356 26.4783 22.6196 26.827C22.8607 26.9714 22.7248 27.2179 22.755 27.4303C22.7682 27.5562 22.824 27.6755 22.9151 27.7719C22.9327 27.7902 23.1969 27.9614 23.2059 27.9199Z" fill="#F86D70"/>
<path d="M28.2015 21.439C29.1634 21.439 29.9432 21.1079 29.9432 20.6994C29.9432 20.2909 29.1634 19.9597 28.2015 19.9597C27.2396 19.9597 26.4598 20.2909 26.4598 20.6994C26.4598 21.1079 27.2396 21.439 28.2015 21.439Z" fill="#2F2E41"/>
<path opacity="0.1" d="M28.2798 21.1924C27.3374 21.1924 26.5706 20.8755 26.5397 20.4775C26.4897 20.5428 26.4625 20.62 26.4614 20.6994C26.4614 21.1079 27.2411 21.439 28.2031 21.439C29.1651 21.439 29.9448 21.1079 29.9448 20.6994C29.9448 20.6909 29.9448 20.6828 29.9448 20.6747C29.7197 20.9748 29.0599 21.1924 28.2798 21.1924Z" fill="black"/>
<path d="M35.8533 26.4403C38.231 26.4403 40.1585 24.8634 40.1585 22.9183C40.1585 20.9731 38.231 19.3962 35.8533 19.3962C33.4755 19.3962 31.548 20.9731 31.548 22.9183C31.548 24.8634 33.4755 26.4403 35.8533 26.4403Z" fill="#2F2E41"/>
<path opacity="0.1" d="M35.8533 25.5245C33.6728 25.5245 31.8709 24.1981 31.5871 22.478C31.5612 22.6354 31.5481 22.7943 31.548 22.9535C31.548 24.8987 33.4756 26.4755 35.8533 26.4755C38.2309 26.4755 40.1585 24.8987 40.1585 22.9535C40.1584 22.7943 40.1453 22.6354 40.1194 22.478C39.8356 24.1981 38.0337 25.5245 35.8533 25.5245Z" fill="black"/>
<path d="M35.7749 25.5597C36.9206 25.5597 37.8493 24.4323 37.8493 23.0415C37.8493 21.6507 36.9206 20.5233 35.7749 20.5233C34.6293 20.5233 33.7006 21.6507 33.7006 23.0415C33.7006 24.4323 34.6293 25.5597 35.7749 25.5597Z" fill="#2F2E41"/>
<path opacity="0.1" d="M35.7749 25.5597C36.9206 25.5597 37.8493 24.4323 37.8493 23.0415C37.8493 21.6507 36.9206 20.5233 35.7749 20.5233C34.6293 20.5233 33.7006 21.6507 33.7006 23.0415C33.7006 24.4323 34.6293 25.5597 35.7749 25.5597Z" fill="black"/>
<path d="M34.8211 24.3179C34.7428 24.4919 34.5863 24.6768 34.3514 24.6902C34.6646 24.9216 34.9816 25.1554 35.3557 25.3241C35.7299 25.4928 36.173 25.5918 36.5988 25.5312C36.8994 25.4886 37.1726 25.3699 37.4278 25.24C37.8622 25.0188 38.2888 24.7282 38.3988 24.3344C38.0726 24.3492 37.7457 24.3437 37.4203 24.3179C37.2516 24.3049 37.079 24.2848 36.9327 24.2186C36.8428 24.1759 36.7634 24.1174 36.699 24.0467C36.6347 23.9759 36.5868 23.8942 36.5581 23.8065C36.4998 23.6403 36.501 23.4652 36.5115 23.293C36.5174 23.1926 36.5217 23.0817 36.436 23.0049C36.3503 22.9281 36.2086 22.9179 36.0798 22.9154C35.8208 22.9107 35.5618 22.9245 35.3053 22.9566C35.1707 22.9692 35.0373 22.991 34.9064 23.0218C34.7366 23.0683 34.7526 23.0503 34.7937 23.1782C34.9213 23.5698 34.9992 23.922 34.8211 24.3179Z" fill="#A0616A"/>
<path opacity="0.1" d="M34.8211 24.3179C34.7428 24.4919 34.5863 24.6768 34.3514 24.6902C34.6646 24.9216 34.9816 25.1554 35.3557 25.3241C35.7299 25.4928 36.173 25.5918 36.5988 25.5312C36.8994 25.4886 37.1726 25.3699 37.4278 25.24C37.8622 25.0188 38.2888 24.7282 38.3988 24.3344C38.0726 24.3492 37.7457 24.3437 37.4203 24.3179C37.2516 24.3049 37.079 24.2848 36.9327 24.2186C36.8428 24.1759 36.7634 24.1174 36.699 24.0467C36.6347 23.9759 36.5868 23.8942 36.5581 23.8065C36.4998 23.6403 36.501 23.4652 36.5115 23.293C36.5174 23.1926 36.5217 23.0817 36.436 23.0049C36.3503 22.9281 36.2086 22.9179 36.0798 22.9154C35.8208 22.9107 35.5618 22.9245 35.3053 22.9566C35.1707 22.9692 35.0373 22.991 34.9064 23.0218C34.7366 23.0683 34.7526 23.0503 34.7937 23.1782C34.9213 23.5698 34.9992 23.922 34.8211 24.3179Z" fill="black"/>
<path d="M35.7162 23.9572C36.7322 23.9572 37.5558 23.2161 37.5558 22.3019C37.5558 21.3877 36.7322 20.6465 35.7162 20.6465C34.7003 20.6465 33.8767 21.3877 33.8767 22.3019C33.8767 23.2161 34.7003 23.9572 35.7162 23.9572Z" fill="#A0616A"/>
<path d="M35.0822 24.4637C34.9621 24.3341 34.8384 24.2017 34.6783 24.1136C34.4161 23.9689 34.0912 23.9597 33.784 23.9551C33.4509 23.9498 33.0889 23.9527 32.8255 24.1362C32.7081 24.2189 32.618 24.3323 32.5323 24.4436L31.4165 25.8877C31.373 25.944 31.3272 26.0078 31.3382 26.0757C31.3507 26.1247 31.3777 26.1696 31.4165 26.2057L32.6439 27.5849C32.7139 27.6635 32.7863 27.7462 32.8098 27.8448C32.8333 27.9435 32.8043 28.047 32.7668 28.1428C32.6184 28.5228 32.3362 28.8824 32.3621 29.2829C32.3805 29.5442 32.5323 29.7844 32.7182 29.9873C33.1448 30.4497 33.7589 30.7505 34.4012 30.9146C35.0435 31.0788 35.7178 31.1147 36.3859 31.1186C37.6454 31.126 38.9691 31.0023 40.0094 30.3631L39.1918 29.67C39.0302 29.5326 38.8607 29.3847 38.8047 29.191C38.7656 29.0606 38.7844 28.9233 38.802 28.7898C38.8349 28.5457 38.8677 28.2999 38.9554 28.0674C39.1992 27.4197 39.8259 26.9587 40.2439 26.3878C40.2963 26.3173 40.3472 26.2363 40.3413 26.1508C40.3366 26.0786 40.292 26.0141 40.2486 25.9535C40.0576 25.6869 39.8595 25.4217 39.721 25.1301C39.6176 24.9131 39.5476 24.6824 39.4196 24.4764C39.2916 24.2703 39.0885 24.0851 38.8325 24.0418C38.503 23.9861 38.1816 24.1717 37.847 24.1844C37.602 24.1939 37.3464 24.1112 37.1174 24.1897C36.8458 24.283 36.7261 24.5585 36.5738 24.7821C36.4615 24.9487 36.1264 25.4044 35.8638 25.2924C35.721 25.2312 35.5899 25.0107 35.4873 24.9026L35.0822 24.4637Z" fill="#F98A8D"/>
<path d="M36.5476 25.5834C36.4856 25.5519 36.4136 25.5402 36.3433 25.5502C36.3085 25.5562 36.277 25.5724 36.2535 25.5963C36.2301 25.6201 36.2161 25.6502 36.2137 25.682L36.1006 25.676C36.0875 25.6747 36.0743 25.6753 36.0615 25.6777C36.0451 25.6809 36.0308 25.6898 36.0218 25.7025C36.0127 25.7151 36.0096 25.7305 36.0131 25.7452C36.0167 25.7599 36.0265 25.7728 36.0406 25.7809C36.0546 25.7891 36.0717 25.7919 36.0881 25.7887C36.0326 25.8085 35.9831 25.8399 35.9437 25.8803C35.9141 25.9202 35.9033 25.969 35.9136 26.0161C35.9238 26.0632 35.9543 26.1048 35.9985 26.1317C36.0447 26.1557 36.0992 26.1636 36.1515 26.154C36.2038 26.1444 36.2504 26.118 36.2826 26.0796C36.276 26.1006 36.2779 26.1231 36.2879 26.143C36.2979 26.163 36.3155 26.179 36.3374 26.1884C36.5495 26.2916 36.6575 26.1515 36.6865 25.9891C36.7194 25.8109 36.7617 25.6785 36.5476 25.5834Z" fill="#FFE9B3"/>
<path opacity="0.15" d="M36.5476 25.5834C36.4856 25.5519 36.4136 25.5402 36.3433 25.5502C36.3085 25.5562 36.277 25.5724 36.2535 25.5963C36.2301 25.6201 36.2161 25.6502 36.2137 25.682L36.1006 25.676C36.0875 25.6747 36.0743 25.6753 36.0615 25.6777C36.0451 25.6809 36.0308 25.6898 36.0218 25.7025C36.0127 25.7151 36.0096 25.7305 36.0131 25.7452C36.0167 25.7599 36.0265 25.7728 36.0406 25.7809C36.0546 25.7891 36.0717 25.7919 36.0881 25.7887C36.0326 25.8085 35.9831 25.8399 35.9437 25.8803C35.9141 25.9202 35.9033 25.969 35.9136 26.0161C35.9238 26.0632 35.9543 26.1048 35.9985 26.1317C36.0447 26.1557 36.0992 26.1636 36.1515 26.154C36.2038 26.1444 36.2504 26.118 36.2826 26.0796C36.276 26.1006 36.2779 26.1231 36.2879 26.143C36.2979 26.163 36.3155 26.179 36.3374 26.1884C36.5495 26.2916 36.6575 26.1515 36.6865 25.9891C36.7194 25.8109 36.7617 25.6785 36.5476 25.5834Z" fill="black"/>
<path d="M37.1252 25.4636C37.0633 25.4321 36.9912 25.4206 36.9209 25.4309C36.8863 25.4367 36.8547 25.4528 36.8313 25.4766C36.808 25.5004 36.794 25.5305 36.7918 25.5622L36.6787 25.5562C36.6656 25.555 36.6524 25.5556 36.6395 25.558C36.6242 25.5623 36.6113 25.5716 36.6031 25.584C36.5949 25.5964 36.5922 25.6111 36.5953 25.6253C36.5995 25.6392 36.6093 25.6513 36.6228 25.659C36.6364 25.6668 36.6527 25.6697 36.6685 25.6672C36.613 25.6871 36.5636 25.7184 36.5241 25.7587C36.4946 25.7987 36.4839 25.8475 36.4941 25.8946C36.5044 25.9417 36.5348 25.9832 36.5789 26.0102C36.6252 26.0342 36.6796 26.0422 36.732 26.0327C36.7844 26.0232 36.8311 25.9968 36.8634 25.9584C36.8568 25.9794 36.8586 26.0018 36.8686 26.0216C36.8785 26.0415 36.896 26.0575 36.9178 26.0669C37.1303 26.1705 37.238 26.0317 37.2673 25.8679C37.2975 25.6911 37.3405 25.5587 37.1252 25.4636Z" fill="#FFE9B3"/>
<path d="M37.5965 25.5242C37.5346 25.4927 37.4627 25.4812 37.3926 25.4914C37.3578 25.4972 37.3262 25.5133 37.3027 25.5371C37.2793 25.5609 37.2653 25.591 37.263 25.6228L37.1499 25.6168C37.1368 25.6155 37.1236 25.6161 37.1108 25.6186C37.0955 25.6229 37.0825 25.6321 37.0743 25.6446C37.0661 25.657 37.0634 25.6717 37.0665 25.6858C37.0707 25.6998 37.0805 25.7118 37.0941 25.7196C37.1076 25.7274 37.1239 25.7303 37.1397 25.7277C37.0841 25.7475 37.0346 25.7789 36.9953 25.8193C36.9658 25.8593 36.9549 25.9081 36.9652 25.9552C36.9755 26.0023 37.006 26.0438 37.0501 26.0708C37.0963 26.0948 37.1507 26.1029 37.2031 26.0933C37.2554 26.0838 37.3021 26.0574 37.3342 26.019C37.3276 26.04 37.3295 26.0624 37.3396 26.0823C37.3496 26.1021 37.3671 26.1182 37.389 26.1275C37.6012 26.231 37.7088 26.0905 37.7381 25.9285C37.7687 25.7535 37.8102 25.6193 37.5965 25.5242Z" fill="#FFE9B3"/>
<path opacity="0.15" d="M37.5965 25.5242C37.5346 25.4927 37.4627 25.4812 37.3926 25.4914C37.3578 25.4972 37.3262 25.5133 37.3027 25.5371C37.2793 25.5609 37.2653 25.591 37.263 25.6228L37.1499 25.6168C37.1368 25.6155 37.1236 25.6161 37.1108 25.6186C37.0955 25.6229 37.0825 25.6321 37.0743 25.6446C37.0661 25.657 37.0634 25.6717 37.0665 25.6858C37.0707 25.6998 37.0805 25.7118 37.0941 25.7196C37.1076 25.7274 37.1239 25.7303 37.1397 25.7277C37.0841 25.7475 37.0346 25.7789 36.9953 25.8193C36.9658 25.8593 36.9549 25.9081 36.9652 25.9552C36.9755 26.0023 37.006 26.0438 37.0501 26.0708C37.0963 26.0948 37.1507 26.1029 37.2031 26.0933C37.2554 26.0838 37.3021 26.0574 37.3342 26.019C37.3276 26.04 37.3295 26.0624 37.3396 26.0823C37.3496 26.1021 37.3671 26.1182 37.389 26.1275C37.6012 26.231 37.7088 26.0905 37.7381 25.9285C37.7687 25.7535 37.8102 25.6193 37.5965 25.5242Z" fill="black"/>
<path d="M38.7495 25.7711V29.5544C38.7494 29.5785 38.7387 29.6016 38.7198 29.6186C38.7009 29.6356 38.6753 29.6452 38.6485 29.6453H35.3671C35.3403 29.6452 35.3147 29.6356 35.2958 29.6186C35.2769 29.6016 35.2662 29.5785 35.2661 29.5544V25.7711C35.2661 25.756 35.2702 25.7411 35.2782 25.7278C35.2861 25.7145 35.2977 25.7032 35.3117 25.695C35.3257 25.6867 35.3418 25.6817 35.3585 25.6804C35.3752 25.6791 35.392 25.6816 35.4074 25.6876C35.4909 25.72 35.5743 25.7499 35.6575 25.7774C35.7749 25.8162 35.8923 25.8499 36.0098 25.8785C36.1272 25.907 36.2446 25.9306 36.362 25.9489C36.4794 25.9673 36.5968 25.9813 36.7143 25.9898C36.8317 25.9982 36.9491 26.0018 37.0665 25.9997C37.1839 25.9975 37.3013 25.9916 37.4188 25.9799C37.5362 25.9683 37.6536 25.9511 37.771 25.9289C37.8884 25.9067 38.0058 25.8806 38.1233 25.8486C38.2145 25.8236 38.306 25.7957 38.3972 25.7647C38.4677 25.7411 38.5377 25.7154 38.6082 25.688C38.6235 25.6819 38.6403 25.6795 38.657 25.6807C38.6737 25.682 38.6897 25.687 38.7038 25.6952C38.7178 25.7035 38.7293 25.7147 38.7373 25.728C38.7452 25.7412 38.7494 25.756 38.7495 25.7711Z" fill="#BBBDC8"/>
<path d="M36.0098 25.8785V29.647H35.6575V25.7774C35.7749 25.8161 35.8924 25.8498 36.0098 25.8785Z" fill="white"/>
<path d="M36.7143 25.9894V29.6453H36.3621V25.9472C36.4795 25.9676 36.5969 25.981 36.7143 25.9894Z" fill="white"/>
<path d="M37.4188 25.9796V29.6453H37.0665V26C37.1839 25.9981 37.3014 25.9913 37.4188 25.9796Z" fill="white"/>
<path d="M38.1233 25.8482V29.6453H37.7711V25.9296C37.8885 25.9075 38.0059 25.8804 38.1233 25.8482Z" fill="white"/>
<path opacity="0.1" d="M38.7495 25.7711V29.5544C38.7494 29.5785 38.7387 29.6016 38.7198 29.6186C38.7009 29.6356 38.6752 29.6452 38.6485 29.6453H38.3972V25.7644C38.4677 25.7408 38.5377 25.7151 38.6082 25.6876C38.6236 25.6816 38.6404 25.6791 38.6571 25.6804C38.6738 25.6817 38.6899 25.6867 38.7039 25.695C38.7179 25.7032 38.7294 25.7145 38.7374 25.7278C38.7453 25.7411 38.7495 25.756 38.7495 25.7711Z" fill="black"/>
<path d="M36.1824 25.403C36.1205 25.3716 36.0486 25.36 35.9785 25.3703C35.9437 25.3761 35.9121 25.3921 35.8887 25.4159C35.8652 25.4397 35.8512 25.4699 35.8489 25.5016L35.7358 25.4956C35.7228 25.4944 35.7096 25.495 35.6967 25.4974C35.6814 25.5017 35.6684 25.511 35.6602 25.5234C35.6521 25.5358 35.6493 25.5505 35.6525 25.5647C35.6566 25.5786 35.6664 25.5907 35.68 25.5984C35.6935 25.6062 35.7098 25.6091 35.7257 25.6066C35.6701 25.6263 35.6206 25.6577 35.5812 25.6982C35.5517 25.7381 35.5409 25.7869 35.5511 25.834C35.5614 25.8811 35.5919 25.9227 35.636 25.9496C35.6823 25.9736 35.7367 25.9816 35.789 25.9721C35.8413 25.9625 35.8879 25.9361 35.9202 25.8979C35.9136 25.9189 35.9155 25.9413 35.9255 25.9611C35.9355 25.981 35.9531 25.997 35.975 26.0063C36.1871 26.1095 36.2947 25.9694 36.3241 25.8073C36.3546 25.6305 36.3969 25.4981 36.1824 25.403Z" fill="#FFE9B3"/>
<path d="M36.7694 24.8043C36.7076 24.7729 36.6357 24.7613 36.5655 24.7715C36.5308 24.7773 36.4992 24.7934 36.4757 24.8172C36.4522 24.841 36.4383 24.8712 36.436 24.9029L36.3229 24.8969C36.3098 24.8957 36.2966 24.8963 36.2837 24.8987C36.2684 24.903 36.2554 24.9123 36.2473 24.9247C36.2391 24.9371 36.2363 24.9518 36.2395 24.9659C36.2437 24.9799 36.2535 24.992 36.267 24.9997C36.2806 25.0075 36.2969 25.0104 36.3127 25.0079C36.2571 25.0276 36.2076 25.059 36.1683 25.0994C36.1387 25.1394 36.1279 25.1882 36.1382 25.2353C36.1484 25.2824 36.1789 25.3239 36.2231 25.3509C36.2693 25.3749 36.3237 25.3829 36.376 25.3733C36.4283 25.3638 36.475 25.3374 36.5072 25.2991C36.5006 25.3201 36.5025 25.3425 36.5125 25.3624C36.5226 25.3823 36.5401 25.3983 36.562 25.4076C36.7741 25.5108 36.8818 25.3706 36.9111 25.2086C36.9416 25.0318 36.9839 24.8994 36.7694 24.8043Z" fill="#FFE9B3"/>
<path d="M37.1683 25.6175C37.2147 25.5689 37.2414 25.5076 37.2438 25.4435C37.2445 25.4116 37.2334 25.3804 37.2121 25.3549C37.1908 25.3294 37.1607 25.311 37.1264 25.3026L37.155 25.204C37.1591 25.1927 37.1611 25.1808 37.1609 25.1688C37.1602 25.1539 37.1531 25.1399 37.141 25.1298C37.1289 25.1197 37.1128 25.1144 37.0963 25.1149C37.0798 25.1155 37.0642 25.1219 37.053 25.1328C37.0417 25.1437 37.0358 25.1582 37.0364 25.173C37.0257 25.1202 37.0012 25.0705 36.9648 25.0279C36.9268 24.9942 36.8756 24.9753 36.8223 24.9753C36.769 24.9753 36.7178 24.9942 36.6798 25.0279C36.6445 25.064 36.625 25.1104 36.625 25.1584C36.625 25.2065 36.6445 25.2529 36.6798 25.2889C36.6582 25.279 36.6333 25.2764 36.6097 25.2814C36.5861 25.2864 36.5652 25.2988 36.5507 25.3164C36.3969 25.4833 36.5288 25.6059 36.6998 25.6633C36.8869 25.7253 37.0231 25.7887 37.1683 25.6175Z" fill="#FFE9B3"/>
<path d="M37.6771 25.6175C37.7235 25.5689 37.7502 25.5076 37.7526 25.4435C37.7533 25.4116 37.7422 25.3804 37.7209 25.3549C37.6996 25.3294 37.6695 25.311 37.6352 25.3026L37.6638 25.204C37.668 25.1927 37.6699 25.1808 37.6697 25.1688C37.669 25.1539 37.6619 25.1399 37.6498 25.1298C37.6377 25.1197 37.6216 25.1144 37.6051 25.1149C37.5886 25.1155 37.573 25.1219 37.5618 25.1328C37.5505 25.1437 37.5446 25.1582 37.5452 25.173C37.5345 25.1202 37.51 25.0705 37.4736 25.0279C37.4356 24.9942 37.3844 24.9753 37.3311 24.9753C37.2778 24.9753 37.2266 24.9942 37.1886 25.0279C37.1533 25.064 37.1338 25.1104 37.1338 25.1584C37.1338 25.2065 37.1533 25.2529 37.1886 25.2889C37.167 25.279 37.1421 25.2764 37.1185 25.2814C37.0948 25.2864 37.0739 25.2988 37.0595 25.3164C36.9057 25.4833 37.0376 25.6059 37.2086 25.6633C37.3957 25.7253 37.5319 25.7887 37.6771 25.6175Z" fill="#FFE9B3"/>
<path d="M37.9957 25.9186C38.0316 25.8633 38.0454 25.7985 38.0349 25.7351C38.0287 25.7038 38.0112 25.6752 37.9849 25.6538C37.9587 25.6325 37.9253 25.6196 37.8901 25.6171L37.8983 25.5157C37.9003 25.504 37.9003 25.4922 37.8983 25.4805C37.8946 25.466 37.8847 25.4534 37.8707 25.4456C37.8567 25.4377 37.8398 25.4351 37.8237 25.4384C37.8076 25.4417 37.7937 25.4507 37.7849 25.4632C37.7761 25.4758 37.7733 25.491 37.777 25.5055C37.7554 25.4554 37.7211 25.4105 37.6768 25.3745C37.6326 25.3475 37.5785 25.3372 37.526 25.346C37.4736 25.3547 37.427 25.3816 37.3965 25.421C37.3694 25.4624 37.3599 25.5113 37.37 25.5585C37.3801 25.6057 37.409 25.648 37.4513 25.6774C37.428 25.6713 37.4031 25.6727 37.3809 25.6816C37.3587 25.6904 37.3406 25.706 37.33 25.7256C37.2126 25.9155 37.3691 26.0141 37.5476 26.0426C37.7413 26.0704 37.8885 26.1102 37.9957 25.9186Z" fill="#FFE9B3"/>
<path d="M36.4301 25.3551C36.466 25.2997 36.4798 25.235 36.4693 25.1716C36.4631 25.1403 36.4455 25.1117 36.4193 25.0903C36.3931 25.069 36.3597 25.056 36.3245 25.0536L36.3327 24.9522C36.3347 24.9405 36.3347 24.9287 36.3327 24.917C36.329 24.9025 36.3191 24.8899 36.3051 24.882C36.2911 24.8742 36.2742 24.8716 36.2581 24.8749C36.242 24.8782 36.2281 24.8871 36.2193 24.8997C36.2105 24.9123 36.2077 24.9275 36.2113 24.942C36.1898 24.8919 36.1555 24.847 36.1111 24.811C36.067 24.784 36.0129 24.7737 35.9604 24.7824C35.908 24.7911 35.8614 24.8181 35.8309 24.8575C35.8037 24.8989 35.7943 24.9478 35.8044 24.995C35.8145 25.0422 35.8434 25.0845 35.8857 25.1139C35.8624 25.1077 35.8375 25.1092 35.8153 25.1181C35.7931 25.1269 35.775 25.1425 35.7644 25.1621C35.647 25.352 35.8035 25.4506 35.982 25.4791C36.1757 25.5069 36.3229 25.5467 36.4301 25.3551Z" fill="#FFE9B3"/>
<path d="M36.5867 25.1607C36.5247 25.1293 36.4527 25.1176 36.3824 25.1276C36.3477 25.1336 36.3161 25.1498 36.2927 25.1736C36.2692 25.1974 36.2552 25.2276 36.2528 25.2593L36.1397 25.2533C36.1267 25.2521 36.1135 25.2527 36.1006 25.2551C36.0842 25.2583 36.07 25.2672 36.0609 25.2798C36.0518 25.2925 36.0487 25.3078 36.0523 25.3226C36.0558 25.3373 36.0657 25.3501 36.0797 25.3583C36.0938 25.3664 36.1109 25.3692 36.1272 25.3661C36.0717 25.3859 36.0222 25.4172 35.9828 25.4576C35.9532 25.4976 35.9424 25.5464 35.9527 25.5935C35.963 25.6406 35.9935 25.6821 36.0376 25.7091C36.0839 25.733 36.1383 25.741 36.1906 25.7314C36.2429 25.7218 36.2895 25.6953 36.3217 25.657C36.3151 25.678 36.317 25.7005 36.327 25.7204C36.337 25.7403 36.3546 25.7564 36.3765 25.7658C36.5887 25.869 36.6967 25.7288 36.7256 25.5665C36.7585 25.3882 36.8008 25.2558 36.5867 25.1607Z" fill="#FFE9B3"/>
<path opacity="0.15" d="M36.5867 25.1607C36.5247 25.1293 36.4527 25.1176 36.3824 25.1276C36.3477 25.1336 36.3161 25.1498 36.2927 25.1736C36.2692 25.1974 36.2552 25.2276 36.2528 25.2593L36.1397 25.2533C36.1267 25.2521 36.1135 25.2527 36.1006 25.2551C36.0842 25.2583 36.07 25.2672 36.0609 25.2798C36.0518 25.2925 36.0487 25.3078 36.0523 25.3226C36.0558 25.3373 36.0657 25.3501 36.0797 25.3583C36.0938 25.3664 36.1109 25.3692 36.1272 25.3661C36.0717 25.3859 36.0222 25.4172 35.9828 25.4576C35.9532 25.4976 35.9424 25.5464 35.9527 25.5935C35.963 25.6406 35.9935 25.6821 36.0376 25.7091C36.0839 25.733 36.1383 25.741 36.1906 25.7314C36.2429 25.7218 36.2895 25.6953 36.3217 25.657C36.3151 25.678 36.317 25.7005 36.327 25.7204C36.337 25.7403 36.3546 25.7564 36.3765 25.7658C36.5887 25.869 36.6967 25.7288 36.7256 25.5665C36.7585 25.3882 36.8008 25.2558 36.5867 25.1607Z" fill="black"/>
<path d="M38.27 25.2819C38.208 25.2504 38.136 25.2388 38.0657 25.2491C38.031 25.255 37.9994 25.2711 37.976 25.2949C37.9525 25.3186 37.9385 25.3488 37.9362 25.3805L37.8234 25.3745C37.8104 25.3733 37.7972 25.3739 37.7843 25.3763C37.769 25.3806 37.756 25.3899 37.7479 25.4023C37.7397 25.4147 37.7369 25.4294 37.7401 25.4435C37.7442 25.4575 37.7541 25.4695 37.7676 25.4773C37.7812 25.4851 37.7975 25.488 37.8133 25.4854C37.7578 25.5053 37.7083 25.5367 37.6688 25.577C37.6394 25.617 37.6287 25.6658 37.6389 25.7129C37.6492 25.7599 37.6796 25.8015 37.7236 25.8285C37.7699 25.8525 37.8243 25.8604 37.8766 25.8509C37.9289 25.8414 37.9756 25.815 38.0078 25.7767C38.0012 25.7977 38.0031 25.8201 38.0131 25.84C38.0232 25.8598 38.0407 25.8759 38.0626 25.8852C38.2747 25.9884 38.3827 25.8482 38.4117 25.6858C38.4418 25.5094 38.4841 25.377 38.27 25.2819Z" fill="#FFE9B3"/>
<path opacity="0.15" d="M38.27 25.2819C38.208 25.2504 38.136 25.2388 38.0657 25.2491C38.031 25.255 37.9994 25.2711 37.976 25.2949C37.9525 25.3186 37.9385 25.3488 37.9362 25.3805L37.8234 25.3745C37.8104 25.3733 37.7972 25.3739 37.7843 25.3763C37.769 25.3806 37.756 25.3899 37.7479 25.4023C37.7397 25.4147 37.7369 25.4294 37.7401 25.4435C37.7442 25.4575 37.7541 25.4695 37.7676 25.4773C37.7812 25.4851 37.7975 25.488 37.8133 25.4854C37.7578 25.5053 37.7083 25.5367 37.6688 25.577C37.6394 25.617 37.6287 25.6658 37.6389 25.7129C37.6492 25.7599 37.6796 25.8015 37.7236 25.8285C37.7699 25.8525 37.8243 25.8604 37.8766 25.8509C37.9289 25.8414 37.9756 25.815 38.0078 25.7767C38.0012 25.7977 38.0031 25.8201 38.0131 25.84C38.0232 25.8598 38.0407 25.8759 38.0626 25.8852C38.2747 25.9884 38.3827 25.8482 38.4117 25.6858C38.4418 25.5094 38.4841 25.377 38.27 25.2819Z" fill="black"/>
<path d="M37.2524 24.6831C37.1905 24.6516 37.1184 24.6401 37.0481 24.6504C37.0134 24.6562 36.9818 24.6723 36.9584 24.6961C36.9349 24.7199 36.9209 24.75 36.9186 24.7817L36.8059 24.7757C36.7928 24.7745 36.7796 24.7751 36.7667 24.7775C36.7514 24.7818 36.7385 24.7911 36.7303 24.8035C36.7221 24.8159 36.7194 24.8306 36.7225 24.8448C36.7267 24.8587 36.7365 24.8708 36.75 24.8785C36.7636 24.8863 36.7799 24.8892 36.7957 24.8867C36.7402 24.9066 36.6907 24.938 36.6513 24.9783C36.6218 25.0182 36.6111 25.067 36.6213 25.1141C36.6316 25.1612 36.662 25.2027 36.7061 25.2297C36.7523 25.2537 36.8067 25.2617 36.859 25.2522C36.9113 25.2426 36.958 25.2162 36.9902 25.178C36.9836 25.199 36.9855 25.2214 36.9955 25.2412C37.0056 25.2611 37.0231 25.2771 37.045 25.2864C37.2571 25.3896 37.3652 25.2495 37.3941 25.0871C37.4243 24.9106 37.4665 24.7782 37.2524 24.6831Z" fill="#FFE9B3"/>
<path opacity="0.15" d="M37.2524 24.6831C37.1905 24.6516 37.1184 24.6401 37.0481 24.6504C37.0134 24.6562 36.9818 24.6723 36.9584 24.6961C36.9349 24.7199 36.9209 24.75 36.9186 24.7817L36.8059 24.7757C36.7928 24.7745 36.7796 24.7751 36.7667 24.7775C36.7514 24.7818 36.7385 24.7911 36.7303 24.8035C36.7221 24.8159 36.7194 24.8306 36.7225 24.8448C36.7267 24.8587 36.7365 24.8708 36.75 24.8785C36.7636 24.8863 36.7799 24.8892 36.7957 24.8867C36.7402 24.9066 36.6907 24.938 36.6513 24.9783C36.6218 25.0182 36.6111 25.067 36.6213 25.1141C36.6316 25.1612 36.662 25.2027 36.7061 25.2297C36.7523 25.2537 36.8067 25.2617 36.859 25.2522C36.9113 25.2426 36.958 25.2162 36.9902 25.178C36.9836 25.199 36.9855 25.2214 36.9955 25.2412C37.0056 25.2611 37.0231 25.2771 37.045 25.2864C37.2571 25.3896 37.3652 25.2495 37.3941 25.0871C37.4243 24.9106 37.4665 24.7782 37.2524 24.6831Z" fill="black"/>
<path d="M36.4697 24.4718C36.4077 24.4403 36.3356 24.4288 36.2654 24.4391C36.2306 24.4449 36.1991 24.461 36.1756 24.4848C36.1522 24.5086 36.1382 24.5387 36.1358 24.5704L36.0231 24.5644C36.01 24.5632 35.9968 24.5638 35.984 24.5662C35.9687 24.5705 35.9557 24.5798 35.9475 24.5922C35.9393 24.6046 35.9366 24.6193 35.9397 24.6335C35.9439 24.6474 35.9537 24.6595 35.9673 24.6672C35.9808 24.675 35.9971 24.6779 36.0129 24.6754C35.9575 24.6953 35.908 24.7266 35.8685 24.767C35.8391 24.8069 35.8283 24.8557 35.8386 24.9028C35.8488 24.9499 35.8793 24.9914 35.9233 25.0184C35.9695 25.0424 36.0239 25.0504 36.0762 25.0409C36.1285 25.0313 36.1752 25.0049 36.2074 24.9667C36.2008 24.9876 36.2027 25.0101 36.2128 25.0299C36.2228 25.0498 36.2403 25.0658 36.2622 25.0751C36.4744 25.1783 36.5824 25.0382 36.6113 24.8758C36.6415 24.6993 36.6838 24.5669 36.4697 24.4718Z" fill="#FFE9B3"/>
<path opacity="0.15" d="M36.4697 24.4718C36.4077 24.4403 36.3356 24.4288 36.2654 24.4391C36.2306 24.4449 36.1991 24.461 36.1756 24.4848C36.1522 24.5086 36.1382 24.5387 36.1358 24.5704L36.0231 24.5644C36.01 24.5632 35.9968 24.5638 35.984 24.5662C35.9687 24.5705 35.9557 24.5798 35.9475 24.5922C35.9393 24.6046 35.9366 24.6193 35.9397 24.6335C35.9439 24.6474 35.9537 24.6595 35.9673 24.6672C35.9808 24.675 35.9971 24.6779 36.0129 24.6754C35.9575 24.6953 35.908 24.7266 35.8685 24.767C35.8391 24.8069 35.8283 24.8557 35.8386 24.9028C35.8488 24.9499 35.8793 24.9914 35.9233 25.0184C35.9695 25.0424 36.0239 25.0504 36.0762 25.0409C36.1285 25.0313 36.1752 25.0049 36.2074 24.9667C36.2008 24.9876 36.2027 25.0101 36.2128 25.0299C36.2228 25.0498 36.2403 25.0658 36.2622 25.0751C36.4744 25.1783 36.5824 25.0382 36.6113 24.8758C36.6415 24.6993 36.6838 24.5669 36.4697 24.4718Z" fill="black"/>
<path d="M37.3307 24.3309C37.2687 24.2994 37.1966 24.2879 37.1264 24.2982C37.0917 24.304 37.0601 24.3201 37.0366 24.3439C37.0132 24.3677 36.9992 24.3978 36.9968 24.4295L36.8841 24.4235C36.871 24.4223 36.8578 24.4229 36.845 24.4253C36.8297 24.4296 36.8167 24.4389 36.8085 24.4513C36.8004 24.4637 36.7976 24.4784 36.8007 24.4926C36.8049 24.5065 36.8147 24.5186 36.8283 24.5263C36.8418 24.5341 36.8581 24.537 36.8739 24.5345C36.8185 24.5544 36.769 24.5858 36.7295 24.6261C36.7001 24.666 36.6893 24.7148 36.6996 24.7619C36.7098 24.809 36.7403 24.8505 36.7843 24.8775C36.8306 24.9015 36.8849 24.9095 36.9373 24.9C36.9896 24.8904 37.0362 24.864 37.0685 24.8258C37.0619 24.8468 37.0638 24.8692 37.0738 24.889C37.0838 24.9089 37.1013 24.9249 37.1233 24.9342C37.3354 25.0374 37.4434 24.8973 37.4724 24.7349C37.5025 24.5584 37.5448 24.426 37.3307 24.3309Z" fill="#FFE9B3"/>
<path opacity="0.15" d="M37.3307 24.3309C37.2687 24.2994 37.1966 24.2879 37.1264 24.2982C37.0917 24.304 37.0601 24.3201 37.0366 24.3439C37.0132 24.3677 36.9992 24.3978 36.9968 24.4295L36.8841 24.4235C36.871 24.4223 36.8578 24.4229 36.845 24.4253C36.8297 24.4296 36.8167 24.4389 36.8085 24.4513C36.8004 24.4637 36.7976 24.4784 36.8007 24.4926C36.8049 24.5065 36.8147 24.5186 36.8283 24.5263C36.8418 24.5341 36.8581 24.537 36.8739 24.5345C36.8185 24.5544 36.769 24.5858 36.7295 24.6261C36.7001 24.666 36.6893 24.7148 36.6996 24.7619C36.7098 24.809 36.7403 24.8505 36.7843 24.8775C36.8306 24.9015 36.8849 24.9095 36.9373 24.9C36.9896 24.8904 37.0362 24.864 37.0685 24.8258C37.0619 24.8468 37.0638 24.8692 37.0738 24.889C37.0838 24.9089 37.1013 24.9249 37.1233 24.9342C37.3354 25.0374 37.4434 24.8973 37.4724 24.7349C37.5025 24.5584 37.5448 24.426 37.3307 24.3309Z" fill="black"/>
<path d="M37.6438 24.5422C37.5818 24.5107 37.5098 24.4992 37.4395 24.5095C37.4048 24.5154 37.3732 24.5315 37.3497 24.5552C37.3263 24.579 37.3123 24.6091 37.3099 24.6409L37.1972 24.6349C37.1842 24.6337 37.171 24.6343 37.1581 24.6366C37.1428 24.641 37.1298 24.6502 37.1216 24.6626C37.1135 24.6751 37.1107 24.6898 37.1139 24.7039C37.118 24.7179 37.1278 24.7299 37.1414 24.7377C37.1549 24.7454 37.1712 24.7483 37.1871 24.7458C37.1316 24.7657 37.0821 24.7971 37.0426 24.8374C37.0132 24.8774 37.0024 24.9262 37.0127 24.9732C37.023 25.0203 37.0534 25.0618 37.0974 25.0889C37.1437 25.1129 37.1981 25.1208 37.2504 25.1113C37.3027 25.1018 37.3493 25.0754 37.3816 25.0371C37.375 25.0581 37.3769 25.0805 37.3869 25.1004C37.3969 25.1202 37.4145 25.1362 37.4364 25.1456C37.6485 25.2488 37.7565 25.1086 37.7855 24.9462C37.8156 24.7698 37.8579 24.6373 37.6438 24.5422Z" fill="#FFE9B3"/>
<path opacity="0.15" d="M37.6438 24.5422C37.5818 24.5107 37.5098 24.4992 37.4395 24.5095C37.4048 24.5154 37.3732 24.5315 37.3497 24.5552C37.3263 24.579 37.3123 24.6091 37.3099 24.6409L37.1972 24.6349C37.1842 24.6337 37.171 24.6343 37.1581 24.6366C37.1428 24.641 37.1298 24.6502 37.1216 24.6626C37.1135 24.6751 37.1107 24.6898 37.1139 24.7039C37.118 24.7179 37.1278 24.7299 37.1414 24.7377C37.1549 24.7454 37.1712 24.7483 37.1871 24.7458C37.1316 24.7657 37.0821 24.7971 37.0426 24.8374C37.0132 24.8774 37.0024 24.9262 37.0127 24.9732C37.023 25.0203 37.0534 25.0618 37.0974 25.0889C37.1437 25.1129 37.1981 25.1208 37.2504 25.1113C37.3027 25.1018 37.3493 25.0754 37.3816 25.0371C37.375 25.0581 37.3769 25.0805 37.3869 25.1004C37.3969 25.1202 37.4145 25.1362 37.4364 25.1456C37.6485 25.2488 37.7565 25.1086 37.7855 24.9462C37.8156 24.7698 37.8579 24.6373 37.6438 24.5422Z" fill="black"/>
<path d="M35.7261 25.2819C35.6641 25.2504 35.592 25.2388 35.5218 25.2491C35.487 25.255 35.4555 25.2711 35.432 25.2949C35.4086 25.3186 35.3946 25.3488 35.3922 25.3805L35.2795 25.3745C35.2664 25.3733 35.2532 25.3739 35.2404 25.3763C35.2251 25.3806 35.2121 25.3899 35.2039 25.4023C35.1958 25.4147 35.193 25.4294 35.1961 25.4435C35.2003 25.4575 35.2101 25.4695 35.2237 25.4773C35.2372 25.4851 35.2535 25.488 35.2693 25.4854C35.2139 25.5053 35.1644 25.5367 35.1249 25.577C35.0955 25.617 35.0847 25.6658 35.095 25.7129C35.1052 25.7599 35.1357 25.8015 35.1797 25.8285C35.2259 25.8525 35.2803 25.8604 35.3326 25.8509C35.385 25.8414 35.4316 25.815 35.4638 25.7767C35.4573 25.7977 35.4591 25.8201 35.4692 25.84C35.4792 25.8598 35.4967 25.8759 35.5186 25.8852C35.7308 25.9884 35.8388 25.8482 35.8678 25.6858C35.8979 25.5094 35.9402 25.377 35.7261 25.2819Z" fill="#FFE9B3"/>
<path opacity="0.15" d="M35.7261 25.2819C35.6641 25.2504 35.592 25.2388 35.5218 25.2491C35.487 25.255 35.4555 25.2711 35.432 25.2949C35.4086 25.3186 35.3946 25.3488 35.3922 25.3805L35.2795 25.3745C35.2664 25.3733 35.2532 25.3739 35.2404 25.3763C35.2251 25.3806 35.2121 25.3899 35.2039 25.4023C35.1958 25.4147 35.193 25.4294 35.1961 25.4435C35.2003 25.4575 35.2101 25.4695 35.2237 25.4773C35.2372 25.4851 35.2535 25.488 35.2693 25.4854C35.2139 25.5053 35.1644 25.5367 35.1249 25.577C35.0955 25.617 35.0847 25.6658 35.095 25.7129C35.1052 25.7599 35.1357 25.8015 35.1797 25.8285C35.2259 25.8525 35.2803 25.8604 35.3326 25.8509C35.385 25.8414 35.4316 25.815 35.4638 25.7767C35.4573 25.7977 35.4591 25.8201 35.4692 25.84C35.4792 25.8598 35.4967 25.8759 35.5186 25.8852C35.7308 25.9884 35.8388 25.8482 35.8678 25.6858C35.8979 25.5094 35.9402 25.377 35.7261 25.2819Z" fill="black"/>
<path d="M37.9961 24.7888C37.9341 24.7573 37.8621 24.7457 37.7918 24.756C37.7571 24.7619 37.7255 24.778 37.702 24.8018C37.6786 24.8255 37.6646 24.8557 37.6622 24.8874L37.5495 24.8814C37.5365 24.8802 37.5233 24.8808 37.5104 24.8832C37.4951 24.8875 37.4821 24.8967 37.4739 24.9092C37.4658 24.9216 37.463 24.9363 37.4662 24.9504C37.4703 24.9644 37.4801 24.9764 37.4937 24.9842C37.5072 24.992 37.5235 24.9949 37.5393 24.9923C37.4839 25.0122 37.4344 25.0436 37.3949 25.0839C37.3655 25.1239 37.3547 25.1727 37.365 25.2198C37.3753 25.2668 37.4057 25.3084 37.4497 25.3354C37.496 25.3594 37.5503 25.3673 37.6027 25.3578C37.655 25.3483 37.7016 25.3219 37.7339 25.2836C37.7273 25.3046 37.7292 25.327 37.7392 25.3469C37.7492 25.3667 37.7668 25.3828 37.7887 25.3921C38.0008 25.4953 38.1088 25.3551 38.1378 25.1927C38.1679 25.0163 38.2102 24.8839 37.9961 24.7888Z" fill="#FFE9B3"/>
<path opacity="0.15" d="M37.9961 24.7888C37.9341 24.7573 37.8621 24.7457 37.7918 24.756C37.7571 24.7619 37.7255 24.778 37.702 24.8018C37.6786 24.8255 37.6646 24.8557 37.6622 24.8874L37.5495 24.8814C37.5365 24.8802 37.5233 24.8808 37.5104 24.8832C37.4951 24.8875 37.4821 24.8967 37.4739 24.9092C37.4658 24.9216 37.463 24.9363 37.4662 24.9504C37.4703 24.9644 37.4801 24.9764 37.4937 24.9842C37.5072 24.992 37.5235 24.9949 37.5393 24.9923C37.4839 25.0122 37.4344 25.0436 37.3949 25.0839C37.3655 25.1239 37.3547 25.1727 37.365 25.2198C37.3753 25.2668 37.4057 25.3084 37.4497 25.3354C37.496 25.3594 37.5503 25.3673 37.6027 25.3578C37.655 25.3483 37.7016 25.3219 37.7339 25.2836C37.7273 25.3046 37.7292 25.327 37.7392 25.3469C37.7492 25.3667 37.7668 25.3828 37.7887 25.3921C38.0008 25.4953 38.1088 25.3551 38.1378 25.1927C38.1679 25.0163 38.2102 24.8839 37.9961 24.7888Z" fill="black"/>
<path d="M38.7398 25.141C38.6778 25.1095 38.6057 25.0979 38.5354 25.1082C38.5007 25.1141 38.4691 25.1302 38.4457 25.154C38.4222 25.1777 38.4082 25.2079 38.4059 25.2396L38.2932 25.2336C38.2801 25.2324 38.2669 25.233 38.254 25.2354C38.2387 25.2397 38.2258 25.249 38.2176 25.2614C38.2094 25.2738 38.2067 25.2885 38.2098 25.3026C38.214 25.3166 38.2238 25.3286 38.2373 25.3364C38.2509 25.3442 38.2672 25.3471 38.283 25.3445C38.2275 25.3644 38.1781 25.3958 38.1386 25.4361C38.1091 25.4761 38.0984 25.5249 38.1086 25.572C38.1189 25.619 38.1493 25.6606 38.1934 25.6876C38.2396 25.7116 38.294 25.7195 38.3463 25.71C38.3986 25.7005 38.4453 25.6741 38.4775 25.6358C38.4709 25.6568 38.4728 25.6792 38.4829 25.6991C38.4929 25.7189 38.5104 25.735 38.5323 25.7443C38.7444 25.8475 38.8525 25.7073 38.8814 25.5449C38.9116 25.3685 38.9538 25.2361 38.7398 25.141Z" fill="#FFE9B3"/>
<path opacity="0.15" d="M38.7398 25.141C38.6778 25.1095 38.6057 25.0979 38.5354 25.1082C38.5007 25.1141 38.4691 25.1302 38.4457 25.154C38.4222 25.1777 38.4082 25.2079 38.4059 25.2396L38.2932 25.2336C38.2801 25.2324 38.2669 25.233 38.254 25.2354C38.2387 25.2397 38.2258 25.249 38.2176 25.2614C38.2094 25.2738 38.2067 25.2885 38.2098 25.3026C38.214 25.3166 38.2238 25.3286 38.2373 25.3364C38.2509 25.3442 38.2672 25.3471 38.283 25.3445C38.2275 25.3644 38.1781 25.3958 38.1386 25.4361C38.1091 25.4761 38.0984 25.5249 38.1086 25.572C38.1189 25.619 38.1493 25.6606 38.1934 25.6876C38.2396 25.7116 38.294 25.7195 38.3463 25.71C38.3986 25.7005 38.4453 25.6741 38.4775 25.6358C38.4709 25.6568 38.4728 25.6792 38.4829 25.6991C38.4929 25.7189 38.5104 25.735 38.5323 25.7443C38.7444 25.8475 38.8525 25.7073 38.8814 25.5449C38.9116 25.3685 38.9538 25.2361 38.7398 25.141Z" fill="black"/>
<path d="M38.1135 24.3661C38.0516 24.3346 37.9795 24.3231 37.9092 24.3334C37.8745 24.3392 37.8429 24.3553 37.8195 24.3791C37.796 24.4029 37.782 24.433 37.7797 24.4647L37.667 24.4588C37.6539 24.4575 37.6407 24.4581 37.6278 24.4605C37.6125 24.4648 37.5995 24.4741 37.5914 24.4865C37.5832 24.4989 37.5804 24.5136 37.5836 24.5278C37.5877 24.5418 37.5976 24.5538 37.6111 24.5616C37.6247 24.5693 37.641 24.5722 37.6568 24.5697C37.6013 24.5896 37.5518 24.621 37.5124 24.6613C37.4829 24.7013 37.4722 24.7501 37.4824 24.7971C37.4927 24.8442 37.5231 24.8857 37.5671 24.9128C37.6134 24.9367 37.6678 24.9447 37.7201 24.9352C37.7724 24.9256 37.8191 24.8993 37.8513 24.861C37.8447 24.882 37.8466 24.9044 37.8566 24.9242C37.8667 24.9441 37.8842 24.9601 37.9061 24.9695C38.1182 25.0727 38.2263 24.9325 38.2552 24.7701C38.2854 24.5937 38.3276 24.4612 38.1135 24.3661Z" fill="#FFE9B3"/>
<path opacity="0.15" d="M38.1135 24.3661C38.0516 24.3346 37.9795 24.3231 37.9092 24.3334C37.8745 24.3392 37.8429 24.3553 37.8195 24.3791C37.796 24.4029 37.782 24.433 37.7797 24.4647L37.667 24.4588C37.6539 24.4575 37.6407 24.4581 37.6278 24.4605C37.6125 24.4648 37.5995 24.4741 37.5914 24.4865C37.5832 24.4989 37.5804 24.5136 37.5836 24.5278C37.5877 24.5418 37.5976 24.5538 37.6111 24.5616C37.6247 24.5693 37.641 24.5722 37.6568 24.5697C37.6013 24.5896 37.5518 24.621 37.5124 24.6613C37.4829 24.7013 37.4722 24.7501 37.4824 24.7971C37.4927 24.8442 37.5231 24.8857 37.5671 24.9128C37.6134 24.9367 37.6678 24.9447 37.7201 24.9352C37.7724 24.9256 37.8191 24.8993 37.8513 24.861C37.8447 24.882 37.8466 24.9044 37.8566 24.9242C37.8667 24.9441 37.8842 24.9601 37.9061 24.9695C38.1182 25.0727 38.2263 24.9325 38.2552 24.7701C38.2854 24.5937 38.3276 24.4612 38.1135 24.3661Z" fill="black"/>
<path d="M38.661 25.2142C38.6969 25.1588 38.7107 25.0941 38.7002 25.0307C38.694 24.9994 38.6764 24.9708 38.6502 24.9494C38.624 24.9281 38.5906 24.9151 38.5554 24.9127L38.5636 24.8113C38.5656 24.7996 38.5656 24.7878 38.5636 24.7761C38.5617 24.7689 38.5584 24.7621 38.5536 24.7561C38.5489 24.7502 38.5429 24.7451 38.536 24.7411C38.5291 24.7372 38.5213 24.7346 38.5133 24.7334C38.5052 24.7321 38.497 24.7324 38.489 24.734C38.481 24.7356 38.4735 24.7387 38.4669 24.7429C38.4602 24.7472 38.4545 24.7526 38.4502 24.7588C38.4458 24.7651 38.4429 24.772 38.4415 24.7792C38.4402 24.7865 38.4404 24.7939 38.4422 24.8011C38.4207 24.751 38.3864 24.7061 38.342 24.6701C38.2979 24.6431 38.2438 24.6328 38.1913 24.6415C38.1389 24.6502 38.0923 24.6772 38.0618 24.7166C38.0346 24.758 38.0252 24.8069 38.0353 24.8541C38.0454 24.9013 38.0743 24.9436 38.1166 24.973C38.0933 24.9668 38.0684 24.9683 38.0462 24.9772C38.0239 24.986 38.0059 25.0016 37.9953 25.0212C37.8779 25.2111 38.0344 25.3097 38.2129 25.3382C38.4066 25.366 38.5538 25.4058 38.661 25.2142Z" fill="#FFE9B3"/>
<path d="M38.661 24.6507C38.6969 24.5953 38.7107 24.5306 38.7002 24.4672C38.694 24.4359 38.6764 24.4073 38.6502 24.3859C38.624 24.3645 38.5906 24.3516 38.5554 24.3492L38.5636 24.2478C38.5656 24.2361 38.5656 24.2243 38.5636 24.2126C38.5599 24.1981 38.55 24.1855 38.536 24.1776C38.522 24.1697 38.5051 24.1672 38.489 24.1705C38.4729 24.1738 38.459 24.1827 38.4502 24.1953C38.4414 24.2079 38.4386 24.2231 38.4422 24.2376C38.4207 24.1874 38.3864 24.1426 38.342 24.1066C38.2979 24.0796 38.2438 24.0693 38.1913 24.078C38.1389 24.0867 38.0923 24.1137 38.0618 24.1531C38.0346 24.1945 38.0252 24.2434 38.0353 24.2906C38.0454 24.3378 38.0743 24.3801 38.1166 24.4095C38.0933 24.4033 38.0684 24.4048 38.0462 24.4137C38.0239 24.4225 38.0059 24.4381 37.9953 24.4577C37.8779 24.6475 38.0344 24.7462 38.2129 24.7747C38.4066 24.8025 38.5538 24.8423 38.661 24.6507Z" fill="#FFE9B3"/>
<path d="M37.9957 25.3903C38.0316 25.335 38.0454 25.2702 38.0349 25.2068C38.0287 25.1755 38.0112 25.1469 37.9849 25.1255C37.9587 25.1042 37.9253 25.0913 37.8901 25.0889L37.8983 24.9874C37.9003 24.9758 37.9003 24.9639 37.8983 24.9522C37.8946 24.9377 37.8847 24.9252 37.8707 24.9173C37.8567 24.9094 37.8398 24.9068 37.8237 24.9101C37.8076 24.9134 37.7937 24.9224 37.7849 24.9349C37.7761 24.9475 37.7733 24.9627 37.777 24.9772C37.7554 24.9271 37.7211 24.8822 37.6768 24.8462C37.6326 24.8192 37.5785 24.809 37.526 24.8177C37.4736 24.8264 37.427 24.8533 37.3965 24.8927C37.3694 24.9341 37.3599 24.983 37.37 25.0302C37.3801 25.0774 37.409 25.1197 37.4513 25.1491C37.428 25.143 37.4031 25.1444 37.3809 25.1533C37.3587 25.1621 37.3406 25.1777 37.33 25.1973C37.2126 25.3872 37.3691 25.4858 37.5476 25.5143C37.7413 25.5421 37.8885 25.5819 37.9957 25.3903Z" fill="#FFE9B3"/>
<path d="M38.7393 26.0243C38.7752 25.9689 38.789 25.9042 38.7785 25.8408C38.7723 25.8095 38.7547 25.7809 38.7285 25.7595C38.7023 25.7381 38.6689 25.7252 38.6337 25.7228L38.6419 25.6214C38.6439 25.6097 38.6439 25.5978 38.6419 25.5862C38.6382 25.5717 38.6283 25.5591 38.6143 25.5512C38.6003 25.5433 38.5834 25.5408 38.5673 25.5441C38.5512 25.5474 38.5373 25.5563 38.5285 25.5689C38.5197 25.5815 38.5169 25.5967 38.5205 25.6112C38.499 25.561 38.4647 25.5162 38.4204 25.4802C38.3762 25.4532 38.3221 25.4429 38.2696 25.4516C38.2172 25.4603 38.1706 25.4873 38.1401 25.5267C38.1129 25.5681 38.1035 25.617 38.1136 25.6642C38.1237 25.7114 38.1526 25.7537 38.1949 25.7831C38.1716 25.7769 38.1467 25.7784 38.1245 25.7872C38.1023 25.7961 38.0842 25.8117 38.0736 25.8313C37.9562 26.0211 38.1127 26.1198 38.2912 26.1483C38.4849 26.1761 38.6321 26.2159 38.7393 26.0243Z" fill="#FFE9B3"/>
<path d="M37.3303 26.2708C37.3662 26.2155 37.38 26.1507 37.3695 26.0873C37.3633 26.056 37.3458 26.0274 37.3195 26.006C37.2933 25.9847 37.2599 25.9718 37.2247 25.9694L37.2329 25.8679C37.2349 25.8562 37.2349 25.8444 37.2329 25.8327C37.2292 25.8182 37.2193 25.8057 37.2053 25.7978C37.1913 25.7899 37.1744 25.7873 37.1583 25.7906C37.1422 25.7939 37.1283 25.8029 37.1195 25.8154C37.1107 25.828 37.1079 25.8432 37.1116 25.8577C37.09 25.8076 37.0557 25.7627 37.0114 25.7267C36.9672 25.6997 36.9131 25.6895 36.8606 25.6982C36.8082 25.7069 36.7616 25.7338 36.7311 25.7732C36.704 25.8146 36.6945 25.8635 36.7046 25.9107C36.7147 25.9579 36.7436 26.0002 36.7859 26.0296C36.7626 26.0235 36.7377 26.0249 36.7155 26.0338C36.6933 26.0426 36.6752 26.0582 36.6646 26.0778C36.5472 26.2677 36.7037 26.3663 36.8822 26.3948C37.0759 26.4226 37.2231 26.4624 37.3303 26.2708Z" fill="#FFE9B3"/>
<path d="M37.0172 24.8268C37.0531 24.7714 37.0669 24.7067 37.0564 24.6433C37.0502 24.612 37.0326 24.5834 37.0064 24.562C36.9802 24.5406 36.9468 24.5277 36.9115 24.5253L36.9198 24.4239C36.9218 24.4122 36.9218 24.4003 36.9198 24.3887C36.9161 24.3742 36.9062 24.3616 36.8922 24.3537C36.8782 24.3458 36.8613 24.3433 36.8452 24.3466C36.8291 24.3499 36.8152 24.3588 36.8064 24.3714C36.7976 24.384 36.7948 24.3992 36.7984 24.4137C36.7769 24.3635 36.7426 24.3187 36.6982 24.2827C36.6541 24.2557 36.6 24.2454 36.5475 24.2541C36.4951 24.2628 36.4485 24.2898 36.418 24.3291C36.3908 24.3705 36.3814 24.4195 36.3915 24.4667C36.4016 24.5139 36.4305 24.5562 36.4728 24.5855C36.4495 24.5794 36.4246 24.5809 36.4024 24.5897C36.3802 24.5986 36.3621 24.6142 36.3515 24.6338C36.2341 24.8236 36.3906 24.9222 36.5691 24.9508C36.7628 24.9786 36.91 25.0184 37.0172 24.8268Z" fill="#FFE9B3"/>
<path d="M37.8391 24.6507C37.875 24.5953 37.8888 24.5306 37.8783 24.4672C37.8721 24.4359 37.8545 24.4073 37.8283 24.3859C37.8021 24.3645 37.7687 24.3516 37.7334 24.3492L37.7417 24.2478C37.7437 24.2361 37.7437 24.2243 37.7417 24.2126C37.738 24.1981 37.7281 24.1855 37.7141 24.1776C37.7001 24.1697 37.6832 24.1672 37.6671 24.1705C37.651 24.1738 37.6371 24.1827 37.6283 24.1953C37.6195 24.2079 37.6167 24.2231 37.6203 24.2376C37.5988 24.1874 37.5645 24.1426 37.5201 24.1066C37.476 24.0796 37.4219 24.0693 37.3694 24.078C37.317 24.0867 37.2704 24.1137 37.2399 24.1531C37.2127 24.1945 37.2033 24.2434 37.2134 24.2906C37.2235 24.3378 37.2524 24.3801 37.2947 24.4095C37.2714 24.4033 37.2465 24.4048 37.2243 24.4137C37.202 24.4225 37.184 24.4381 37.1734 24.4577C37.056 24.6475 37.2125 24.7462 37.391 24.7747C37.5847 24.8025 37.7319 24.8423 37.8391 24.6507Z" fill="#FFE9B3"/>
<path d="M36.1953 25.3199C36.2312 25.2645 36.245 25.1998 36.2345 25.1364C36.2283 25.1051 36.2107 25.0765 36.1845 25.0551C36.1583 25.0337 36.1249 25.0208 36.0897 25.0184L36.0979 24.917C36.0999 24.9053 36.0999 24.8934 36.0979 24.8818C36.0942 24.8673 36.0843 24.8547 36.0703 24.8468C36.0563 24.8389 36.0394 24.8364 36.0233 24.8397C36.0072 24.843 35.9933 24.8519 35.9845 24.8645C35.9757 24.8771 35.9729 24.8923 35.9765 24.9068C35.955 24.8566 35.9207 24.8118 35.8763 24.7758C35.8322 24.7488 35.7781 24.7385 35.7256 24.7472C35.6732 24.7559 35.6266 24.7829 35.5961 24.8222C35.5689 24.8637 35.5595 24.9126 35.5696 24.9598C35.5797 25.007 35.6086 25.0493 35.6509 25.0786C35.6276 25.0725 35.6027 25.074 35.5805 25.0828C35.5583 25.0917 35.5402 25.1073 35.5296 25.1269C35.4122 25.3167 35.5687 25.4154 35.7472 25.4439C35.9409 25.4717 36.0881 25.5115 36.1953 25.3199Z" fill="#FFE9B3"/>
<path d="M35.5719 26.9354C35.7754 26.9207 35.9762 26.8738 36.1805 26.8763C36.4478 26.8794 36.7049 26.9664 36.9484 27.0658C37.0199 27.0906 37.0855 27.1274 37.1417 27.1742C37.1819 27.2159 37.2111 27.2651 37.2272 27.3182C37.2433 27.3714 37.246 27.4272 37.2349 27.4814C37.212 27.5897 37.1643 27.6927 37.0948 27.7835C37.0235 27.8853 36.9355 27.9857 36.8114 28.0301C36.742 28.0516 36.6692 28.0629 36.5957 28.0635C36.2893 28.0787 35.977 28.0635 35.6862 27.9751C35.537 27.9294 35.3957 27.8653 35.2498 27.811C34.7844 27.6377 34.2811 27.5694 33.7867 27.4821C33.7616 27.4794 33.7377 27.471 33.7171 27.4578C33.6141 27.3778 33.8376 27.0897 33.8901 27.0091C33.9785 26.8721 34.0588 26.8573 34.238 26.8534C34.6858 26.8432 35.1229 26.9605 35.5719 26.9354Z" fill="#A0616A"/>
<path d="M39.054 27.91C38.9123 27.8473 38.7851 27.7607 38.6446 27.6955C38.4677 27.6136 38.2731 27.5671 38.0743 27.5592C37.9456 27.5539 37.8055 27.5694 37.7119 27.6494C37.5784 27.7635 37.5945 27.9575 37.6383 28.1185C37.7049 28.3597 37.8387 28.6151 38.0959 28.7063C38.1969 28.7367 38.3025 28.753 38.409 28.7546C38.8853 28.7841 39.3812 28.8109 39.8227 28.6489C39.855 28.6398 39.8828 28.6207 39.901 28.595C39.9201 28.5598 39.901 28.5175 39.8814 28.482C39.8109 28.3545 39.6994 28.0871 39.5632 28.0075C39.4364 27.9311 39.2121 27.9797 39.054 27.91Z" fill="#A0616A"/>
<path opacity="0.1" d="M40.1734 25.9919C40.4343 26.3644 40.6488 26.7616 40.8129 27.1764C40.8588 27.2784 40.8853 27.3866 40.8912 27.4965C40.8912 27.6187 40.8438 27.7371 40.7941 27.8526C40.6358 28.2222 40.452 28.5826 40.2438 28.9317C40.1812 29.0374 40.1096 29.1476 39.9855 29.2057C39.8552 29.267 39.6947 29.2575 39.5456 29.241C39.1719 29.2042 38.8014 29.1451 38.4364 29.0642C38.6661 29.0708 38.8736 28.9159 38.9797 28.7472C39.0857 28.5785 39.1092 28.3855 39.1268 28.197C39.1429 28.0956 39.1382 27.9923 39.1127 27.8924C39.0979 27.8408 39.0694 27.7932 39.0297 27.7537C38.9901 27.7141 38.9404 27.6838 38.8849 27.6652C38.8744 27.5733 38.9718 27.4962 39.0724 27.4539C39.173 27.4116 39.2873 27.388 39.3691 27.3246C39.4896 27.2316 39.5069 27.0763 39.4673 26.9446C39.4278 26.8129 39.3417 26.6938 39.2806 26.5674C39.1949 26.3913 39.6372 26.206 39.6548 26.0158C39.6251 26.0511 39.6587 25.9729 39.6548 26.0158C39.6845 25.9806 39.8693 26.1028 39.9112 26.0863C40.1863 25.9792 40.0211 25.7742 40.1734 25.9919Z" fill="black"/>
<path d="M40.2587 25.9919C40.5196 26.3644 40.7342 26.7616 40.8986 27.1764C40.9447 27.2783 40.9712 27.3866 40.9769 27.4965C40.9769 27.6187 40.9295 27.7371 40.8802 27.8526C40.7217 28.2222 40.5379 28.5826 40.3299 28.9317C40.2673 29.0374 40.1957 29.1476 40.0716 29.2057C39.9413 29.267 39.7804 29.2575 39.6317 29.241C39.2579 29.2042 38.8872 29.1452 38.5221 29.0642C38.7514 29.0708 38.9593 28.9159 39.065 28.7472C39.1706 28.5785 39.1949 28.3855 39.2125 28.197C39.2284 28.0956 39.2237 27.9923 39.1984 27.8924C39.1834 27.8409 39.1549 27.7933 39.1153 27.7538C39.0756 27.7143 39.026 27.6839 38.9706 27.6652C38.9597 27.5733 39.0575 27.4962 39.1581 27.4539C39.2587 27.4116 39.373 27.388 39.4548 27.3246C39.5749 27.2316 39.5922 27.0763 39.5526 26.9446C39.5131 26.8129 39.427 26.6938 39.3659 26.5674C39.2805 26.391 39.2448 26.1985 39.2618 26.0067C39.2626 25.9628 39.277 25.92 39.3033 25.8831C39.3325 25.8516 39.3701 25.8274 39.4125 25.8126C39.6888 25.707 40.1064 25.7742 40.2587 25.9919Z" fill="#F98A8D"/>
<path opacity="0.1" d="M31.8924 25.6425C31.6384 25.8538 31.3761 26.0771 31.2525 26.3684C31.1851 26.5272 31.1628 26.6984 31.1409 26.8675C31.1041 27.1556 31.0709 27.4641 31.2192 27.7212C31.3836 28.003 31.728 28.1541 32.0513 28.2819C32.1631 28.3292 32.2789 28.3683 32.3977 28.3988C32.5532 28.4301 32.7119 28.4476 32.8712 28.451L34.503 28.5327C34.29 28.3397 34.1538 28.0375 34.1828 27.7666C34.209 27.5247 34.3394 27.3028 34.4705 27.0911C34.5386 26.9819 34.6157 26.8671 34.7413 26.8132C34.2097 26.7075 33.6631 26.6766 33.121 26.7217C33.0846 26.7245 33.0427 26.7255 33.0188 26.6995C33.0069 26.6831 33.0014 26.6637 33.0031 26.6442C33.0031 26.4255 33.1848 26.2437 33.2599 26.0359C33.3801 25.7027 32.9711 25.8855 32.6031 25.7711C32.2352 25.6566 31.9675 25.2988 31.8924 25.6425Z" fill="black"/>
<path d="M31.7749 25.6425C31.5209 25.8538 31.2587 26.0771 31.135 26.3684C31.0677 26.5272 31.0454 26.6984 31.0235 26.8675C30.9867 27.1556 30.9534 27.4641 31.1018 27.7212C31.2661 28.003 31.6106 28.1541 31.9339 28.2819C32.0457 28.3292 32.1615 28.3683 32.2802 28.3988C32.4358 28.4301 32.5944 28.4476 32.7538 28.451L34.3855 28.5327C34.1726 28.3397 34.0364 28.0375 34.0654 27.7666C34.0916 27.5247 34.2219 27.3028 34.353 27.0911C34.4211 26.9819 34.4982 26.8671 34.6239 26.8132C34.0923 26.7075 33.5457 26.6766 33.0035 26.7217C32.9671 26.7245 32.9252 26.7255 32.9014 26.6995C32.8895 26.6831 32.884 26.6637 32.8857 26.6442C32.8857 26.4255 33.0673 26.2437 33.1425 26.0359C33.2626 25.7027 33.0536 25.2963 32.6853 25.1811C32.317 25.066 31.8501 25.2988 31.7749 25.6425Z" fill="#F98A8D"/>
<path d="M35.8728 21.8616C36.9644 21.8616 37.8493 21.5305 37.8493 21.122C37.8493 20.7135 36.9644 20.3824 35.8728 20.3824C34.7812 20.3824 33.8963 20.7135 33.8963 21.122C33.8963 21.5305 34.7812 21.8616 35.8728 21.8616Z" fill="#2F2E41"/>
<path opacity="0.1" d="M35.8337 21.5447C34.8877 21.5447 34.0971 21.2957 33.903 20.9635C33.8735 21.0122 33.8578 21.0666 33.8572 21.122C33.8572 21.5306 34.7421 21.8616 35.8337 21.8616C36.9253 21.8616 37.8102 21.5306 37.8102 21.122C37.8096 21.0666 37.7939 21.0122 37.7644 20.9635C37.5703 21.2957 36.7797 21.5447 35.8337 21.5447Z" fill="black"/>
<path d="M38.5049 21.619C38.4429 21.5875 38.3708 21.5759 38.3006 21.5862C38.2659 21.5921 38.2343 21.6082 38.2108 21.632C38.1874 21.6557 38.1734 21.6859 38.171 21.7176L38.0583 21.7116C38.0452 21.7104 38.032 21.711 38.0192 21.7134C38.0039 21.7177 37.9909 21.7269 37.9827 21.7394C37.9746 21.7518 37.9718 21.7665 37.9749 21.7806C37.9791 21.7946 37.9889 21.8066 38.0025 21.8144C38.016 21.8222 38.0323 21.8251 38.0481 21.8225C37.9927 21.8424 37.9432 21.8738 37.9037 21.9141C37.8743 21.9541 37.8635 22.0029 37.8738 22.05C37.884 22.097 37.9145 22.1386 37.9585 22.1656C38.0048 22.1896 38.0591 22.1975 38.1115 22.188C38.1638 22.1785 38.2104 22.1521 38.2427 22.1138C38.2361 22.1348 38.238 22.1572 38.248 22.1771C38.258 22.1969 38.2755 22.213 38.2974 22.2223C38.5096 22.3255 38.6176 22.1853 38.6466 22.0229C38.6767 21.8465 38.719 21.7141 38.5049 21.619Z" fill="#FFE9B3"/>
<path opacity="0.15" d="M38.5049 21.619C38.4429 21.5875 38.3708 21.5759 38.3006 21.5862C38.2659 21.5921 38.2343 21.6082 38.2108 21.632C38.1874 21.6557 38.1734 21.6859 38.171 21.7176L38.0583 21.7116C38.0452 21.7104 38.032 21.711 38.0192 21.7134C38.0039 21.7177 37.9909 21.7269 37.9827 21.7394C37.9746 21.7518 37.9718 21.7665 37.9749 21.7806C37.9791 21.7946 37.9889 21.8066 38.0025 21.8144C38.016 21.8222 38.0323 21.8251 38.0481 21.8225C37.9927 21.8424 37.9432 21.8738 37.9037 21.9141C37.8743 21.9541 37.8635 22.0029 37.8738 22.05C37.884 22.097 37.9145 22.1386 37.9585 22.1656C38.0048 22.1896 38.0591 22.1975 38.1115 22.188C38.1638 22.1785 38.2104 22.1521 38.2427 22.1138C38.2361 22.1348 38.238 22.1572 38.248 22.1771C38.258 22.1969 38.2755 22.213 38.2974 22.2223C38.5096 22.3255 38.6176 22.1853 38.6466 22.0229C38.6767 21.8465 38.719 21.7141 38.5049 21.619Z" fill="black"/>
<path d="M40.3835 24.2957C40.3216 24.2642 40.2495 24.2526 40.1792 24.2629C40.1445 24.2688 40.1129 24.2849 40.0895 24.3087C40.066 24.3325 40.052 24.3626 40.0497 24.3943L39.937 24.3883C39.9239 24.3871 39.9107 24.3877 39.8978 24.3901C39.8825 24.3944 39.8696 24.4037 39.8614 24.4161C39.8532 24.4285 39.8505 24.4432 39.8536 24.4574C39.8578 24.4713 39.8676 24.4834 39.8811 24.4911C39.8947 24.4989 39.911 24.5018 39.9268 24.4993C39.8713 24.5192 39.8219 24.5505 39.7824 24.5908C39.7529 24.6308 39.7422 24.6796 39.7524 24.7267C39.7627 24.7738 39.7931 24.8153 39.8372 24.8423C39.8834 24.8663 39.9378 24.8743 39.9901 24.8647C40.0424 24.8552 40.0891 24.8288 40.1213 24.7905C40.1147 24.8115 40.1166 24.8339 40.1266 24.8538C40.1367 24.8737 40.1542 24.8897 40.1761 24.899C40.3882 25.0022 40.4963 24.862 40.5252 24.6997C40.5554 24.5232 40.5976 24.3908 40.3835 24.2957Z" fill="#FFE9B3"/>
<path opacity="0.15" d="M40.3835 24.2957C40.3216 24.2642 40.2495 24.2526 40.1792 24.2629C40.1445 24.2688 40.1129 24.2849 40.0895 24.3087C40.066 24.3325 40.052 24.3626 40.0497 24.3943L39.937 24.3883C39.9239 24.3871 39.9107 24.3877 39.8978 24.3901C39.8825 24.3944 39.8696 24.4037 39.8614 24.4161C39.8532 24.4285 39.8505 24.4432 39.8536 24.4574C39.8578 24.4713 39.8676 24.4834 39.8811 24.4911C39.8947 24.4989 39.911 24.5018 39.9268 24.4993C39.8713 24.5192 39.8219 24.5505 39.7824 24.5908C39.7529 24.6308 39.7422 24.6796 39.7524 24.7267C39.7627 24.7738 39.7931 24.8153 39.8372 24.8423C39.8834 24.8663 39.9378 24.8743 39.9901 24.8647C40.0424 24.8552 40.0891 24.8288 40.1213 24.7905C40.1147 24.8115 40.1166 24.8339 40.1266 24.8538C40.1367 24.8737 40.1542 24.8897 40.1761 24.899C40.3882 25.0022 40.4963 24.862 40.5252 24.6997C40.5554 24.5232 40.5976 24.3908 40.3835 24.2957Z" fill="black"/>
<path d="M42.5753 27.1485C42.5133 27.117 42.4413 27.1055 42.371 27.1158C42.3363 27.1217 42.3047 27.1377 42.2813 27.1615C42.2578 27.1853 42.2438 27.2154 42.2415 27.2472L42.1287 27.2412C42.1157 27.24 42.1025 27.2405 42.0896 27.2429C42.0743 27.2473 42.0613 27.2565 42.0532 27.2689C42.045 27.2814 42.0422 27.2961 42.0454 27.3102C42.0495 27.3242 42.0594 27.3362 42.0729 27.344C42.0865 27.3517 42.1028 27.3546 42.1186 27.3521C42.0631 27.372 42.0136 27.4034 41.9741 27.4437C41.9447 27.4837 41.934 27.5325 41.9442 27.5795C41.9545 27.6266 41.9849 27.6681 42.0289 27.6952C42.0752 27.7191 42.1296 27.7271 42.1819 27.7176C42.2342 27.7081 42.2809 27.6817 42.3131 27.6434C42.3065 27.6644 42.3084 27.6868 42.3184 27.7066C42.3284 27.7265 42.346 27.7425 42.3679 27.7519C42.58 27.8551 42.688 27.7149 42.717 27.5525C42.7471 27.3761 42.7894 27.2436 42.5753 27.1485Z" fill="#FFE9B3"/>
<path opacity="0.15" d="M42.5753 27.1485C42.5133 27.117 42.4413 27.1055 42.371 27.1158C42.3363 27.1217 42.3047 27.1377 42.2813 27.1615C42.2578 27.1853 42.2438 27.2154 42.2415 27.2472L42.1287 27.2412C42.1157 27.24 42.1025 27.2405 42.0896 27.2429C42.0743 27.2473 42.0613 27.2565 42.0532 27.2689C42.045 27.2814 42.0422 27.2961 42.0454 27.3102C42.0495 27.3242 42.0594 27.3362 42.0729 27.344C42.0865 27.3517 42.1028 27.3546 42.1186 27.3521C42.0631 27.372 42.0136 27.4034 41.9741 27.4437C41.9447 27.4837 41.934 27.5325 41.9442 27.5795C41.9545 27.6266 41.9849 27.6681 42.0289 27.6952C42.0752 27.7191 42.1296 27.7271 42.1819 27.7176C42.2342 27.7081 42.2809 27.6817 42.3131 27.6434C42.3065 27.6644 42.3084 27.6868 42.3184 27.7066C42.3284 27.7265 42.346 27.7425 42.3679 27.7519C42.58 27.8551 42.688 27.7149 42.717 27.5525C42.7471 27.3761 42.7894 27.2436 42.5753 27.1485Z" fill="black"/>
<path d="M39.209 20.8469C39.2449 20.7916 39.2587 20.7268 39.2481 20.6634C39.242 20.6321 39.2244 20.6035 39.1982 20.5821C39.172 20.5608 39.1386 20.5479 39.1033 20.5455L39.1115 20.444C39.1135 20.4324 39.1135 20.4205 39.1115 20.4088C39.1079 20.3943 39.0979 20.3818 39.0839 20.3739C39.07 20.366 39.0531 20.3634 39.037 20.3667C39.0209 20.37 39.0069 20.379 38.9982 20.3916C38.9894 20.4041 38.9865 20.4193 38.9902 20.4338C38.9687 20.3837 38.9344 20.3388 38.89 20.3028C38.8459 20.2758 38.7917 20.2656 38.7393 20.2743C38.6868 20.283 38.6403 20.3099 38.6098 20.3493C38.5826 20.3907 38.5732 20.4396 38.5833 20.4868C38.5934 20.534 38.6223 20.5763 38.6646 20.6057C38.6413 20.5996 38.6163 20.6011 38.5941 20.6099C38.5719 20.6187 38.5539 20.6343 38.5432 20.6539C38.4258 20.8438 38.5824 20.9424 38.7609 20.9709C38.9546 20.9987 39.1018 21.0385 39.209 20.8469Z" fill="#FFE9B3"/>
<path d="M38.9741 19.6143C39.01 19.5589 39.0238 19.4941 39.0133 19.4308C39.0071 19.3994 38.9895 19.3708 38.9633 19.3494C38.9371 19.3281 38.9037 19.3152 38.8685 19.3128L38.8767 19.2113C38.8787 19.1997 38.8787 19.1878 38.8767 19.1761C38.873 19.1616 38.8631 19.1491 38.8491 19.1412C38.8351 19.1333 38.8182 19.1307 38.8021 19.134C38.786 19.1373 38.7721 19.1463 38.7633 19.1589C38.7545 19.1714 38.7517 19.1866 38.7553 19.2011C38.7338 19.151 38.6995 19.1061 38.6552 19.0701C38.611 19.0431 38.5569 19.0329 38.5044 19.0416C38.452 19.0503 38.4054 19.0772 38.3749 19.1166C38.3478 19.158 38.3383 19.2069 38.3484 19.2541C38.3585 19.3013 38.3874 19.3436 38.4297 19.373C38.4064 19.3669 38.3815 19.3684 38.3593 19.3772C38.3371 19.386 38.319 19.4016 38.3084 19.4212C38.191 19.6111 38.3475 19.7097 38.526 19.7382C38.7197 19.766 38.8669 19.8058 38.9741 19.6143Z" fill="#FFE9B3"/>
<path d="M33.1038 29.7548C33.0418 29.7233 32.9697 29.7118 32.8995 29.722C32.8647 29.7279 32.8332 29.744 32.8097 29.7678C32.7863 29.7916 32.7723 29.8217 32.7699 29.8534L32.6572 29.8474C32.6442 29.8456 32.631 29.8456 32.618 29.8474C32.6028 29.8518 32.5898 29.861 32.5816 29.8734C32.5734 29.8859 32.5707 29.9006 32.5738 29.9147C32.578 29.9287 32.5878 29.9407 32.6014 29.9485C32.6149 29.9562 32.6312 29.9591 32.647 29.9566C32.5915 29.9765 32.5421 30.0079 32.5026 30.0482C32.4732 30.0882 32.4624 30.137 32.4727 30.184C32.4829 30.2311 32.5134 30.2726 32.5574 30.2997C32.6036 30.3236 32.658 30.3316 32.7103 30.3221C32.7626 30.3126 32.8093 30.2862 32.8415 30.2479C32.8349 30.2689 32.8368 30.2913 32.8469 30.3111C32.8569 30.331 32.8744 30.347 32.8963 30.3564C33.1085 30.4596 33.2165 30.3211 33.2454 30.157C33.2756 29.9823 33.3179 29.8499 33.1038 29.7548Z" fill="#FFE9B3"/>
<path opacity="0.15" d="M33.1038 29.7548C33.0418 29.7233 32.9697 29.7118 32.8995 29.722C32.8647 29.7279 32.8332 29.744 32.8097 29.7678C32.7863 29.7916 32.7723 29.8217 32.7699 29.8534L32.6572 29.8474C32.6442 29.8456 32.631 29.8456 32.618 29.8474C32.6028 29.8518 32.5898 29.861 32.5816 29.8734C32.5734 29.8859 32.5707 29.9006 32.5738 29.9147C32.578 29.9287 32.5878 29.9407 32.6014 29.9485C32.6149 29.9562 32.6312 29.9591 32.647 29.9566C32.5915 29.9765 32.5421 30.0079 32.5026 30.0482C32.4732 30.0882 32.4624 30.137 32.4727 30.184C32.4829 30.2311 32.5134 30.2726 32.5574 30.2997C32.6036 30.3236 32.658 30.3316 32.7103 30.3221C32.7626 30.3126 32.8093 30.2862 32.8415 30.2479C32.8349 30.2689 32.8368 30.2913 32.8469 30.3111C32.8569 30.331 32.8744 30.347 32.8963 30.3564C33.1085 30.4596 33.2165 30.3211 33.2454 30.157C33.2756 29.9823 33.3179 29.8499 33.1038 29.7548Z" fill="black"/>
<path d="M31.6944 29.6872C31.7302 29.6318 31.744 29.5671 31.7335 29.5037C31.7273 29.4723 31.7098 29.4437 31.6835 29.4224C31.6573 29.401 31.6239 29.3881 31.5887 29.3857L31.5969 29.2843C31.5989 29.2726 31.5989 29.2607 31.5969 29.249C31.5932 29.2346 31.5833 29.222 31.5693 29.2141C31.5553 29.2062 31.5384 29.2036 31.5223 29.207C31.5062 29.2103 31.4923 29.2192 31.4835 29.2318C31.4747 29.2444 31.4719 29.2596 31.4756 29.2741C31.454 29.2239 31.4197 29.179 31.3754 29.143C31.3313 29.1161 31.2771 29.1058 31.2246 29.1145C31.1722 29.1232 31.1257 29.1502 31.0951 29.1895C31.068 29.2309 31.0585 29.2798 31.0686 29.3271C31.0787 29.3743 31.1076 29.4165 31.1499 29.4459C31.1266 29.4398 31.1017 29.4413 31.0795 29.4501C31.0573 29.4589 31.0393 29.4746 31.0286 29.4942C30.9112 29.684 31.0677 29.7826 31.2462 29.8112C31.4399 29.839 31.5871 29.8788 31.6944 29.6872Z" fill="#FFE9B3"/>
<path d="M33.573 27.7501C33.6089 27.6947 33.6227 27.63 33.6122 27.5666C33.606 27.5352 33.5884 27.5066 33.5622 27.4853C33.536 27.4639 33.5026 27.451 33.4673 27.4486L33.4756 27.3472C33.4776 27.3355 33.4776 27.3236 33.4756 27.3119C33.4719 27.2975 33.462 27.2849 33.448 27.277C33.434 27.2691 33.4171 27.2665 33.401 27.2699C33.3849 27.2732 33.3709 27.2821 33.3622 27.2947C33.3534 27.3073 33.3505 27.3225 33.3542 27.337C33.3327 27.2868 33.2984 27.2419 33.254 27.2059C33.2099 27.1789 33.1558 27.1687 33.1033 27.1774C33.0509 27.1861 33.0043 27.2131 32.9738 27.2524C32.9466 27.2938 32.9372 27.3427 32.9473 27.39C32.9574 27.4372 32.9863 27.4794 33.0286 27.5088C33.0053 27.5027 32.9803 27.5042 32.9581 27.513C32.9359 27.5218 32.9179 27.5375 32.9073 27.5571C32.7898 27.7469 32.9464 27.8455 33.1249 27.8741C33.3186 27.9019 33.4658 27.9417 33.573 27.7501Z" fill="#FFE9B3"/>
<path d="M30.5659 28.3897C30.1847 28.302 29.7879 28.2136 29.4027 28.284C29.2313 28.3154 29.0693 28.3774 28.9025 28.4249C28.492 28.5394 28.058 28.5692 27.6329 28.512C27.2078 28.4549 26.8024 28.3123 26.447 28.0949C26.0477 27.8466 25.6329 27.4845 25.1601 27.5828C25.0329 27.6096 24.9151 27.6694 24.7851 27.6825C24.5413 27.7075 24.3155 27.5652 24.0736 27.5317C23.6571 27.4743 23.2787 27.7371 22.9585 27.9836L21.2704 29.2836C21.1425 29.3822 21.0016 29.5125 21.0356 29.6604C21.0877 29.8777 21.4575 29.907 21.5526 30.113C21.6215 30.2606 21.5076 30.4325 21.3569 30.5166C21.2063 30.6008 21.0239 30.6223 20.8548 30.6734C20.5993 30.7504 20.3703 30.8856 20.1901 31.0658C20.0099 31.246 19.8845 31.4651 19.8262 31.7018C19.7965 31.8279 19.7871 31.9589 19.7319 32.0779C19.6724 32.2076 19.5648 32.3139 19.4853 32.4344C19.1378 32.9591 19.3659 33.6555 19.1022 34.2183C18.9624 34.5169 18.6826 34.8057 18.771 35.1196C18.8517 35.4041 19.1988 35.5496 19.5147 35.625C19.5519 35.8187 19.4755 35.9553 19.319 36.0944C20.6321 36.5801 22.0415 37.076 23.4344 36.8277C23.9123 36.7428 24.3777 36.5706 24.8646 36.5777C25.2102 36.5826 25.5519 36.6784 25.8967 36.6566C26.6243 36.6104 27.2924 36.0508 27.9973 36.2188C27.7847 36.2318 27.7061 36.5114 27.8313 36.6668C27.9566 36.8221 28.1871 36.8718 28.3992 36.8901C28.6113 36.9084 28.836 36.9098 29.02 37.007C28.8806 37.268 28.3816 37.3592 28.4297 37.6462C28.4474 37.7498 28.5405 37.8283 28.6329 37.8928C29.582 38.5468 30.8892 38.4841 32.0771 38.5972C32.953 38.6796 33.8117 38.8723 34.6849 38.9751C36.0798 39.1389 37.4939 39.072 38.8982 39.0043C39.153 38.992 39.4387 38.9666 39.6027 38.7905C39.8203 38.556 39.6994 38.2084 39.672 37.9041C39.5656 36.7133 41.0129 35.8937 41.4184 34.7561C41.5749 34.312 41.5683 33.8347 41.5401 33.3688C41.4771 32.3178 41.2943 31.2091 40.5499 30.3976C39.937 29.7284 39.0207 29.3515 38.1084 29.0754C37.5276 28.8993 36.919 28.7546 36.308 28.8063C35.2826 28.8933 34.2466 29.5234 33.2998 29.1585C33.0493 29.062 32.836 28.9025 32.598 28.7834C31.9726 28.4654 31.263 28.5499 30.5659 28.3897Z" fill="#6095E9"/>
<g opacity="0.1">
<path opacity="0.1" d="M35.8614 38.058C34.9882 37.9551 34.1311 37.7635 33.2536 37.6801C32.0646 37.5681 30.7573 37.6308 29.8094 36.9757C29.717 36.9119 29.6239 36.8348 29.6062 36.7291C29.5581 36.4428 30.0571 36.3509 30.1965 36.0899C30.0125 35.9927 29.7882 35.9916 29.5757 35.9729C29.3632 35.9543 29.1331 35.905 29.0078 35.7496C28.8826 35.5943 28.9612 35.3147 29.1738 35.3016C28.4693 35.1336 27.8008 35.6933 27.0732 35.7394C26.7284 35.7613 26.3867 35.6655 26.0411 35.6605C25.5542 35.6535 25.0888 35.8257 24.6109 35.9106C23.218 36.1571 21.809 35.6641 20.4955 35.1773C20.6501 35.0364 20.7272 34.9015 20.6912 34.7078C20.3761 34.6325 20.0289 34.487 19.9475 34.2024C19.8591 33.8886 20.1389 33.5998 20.2786 33.3011C20.5424 32.7376 20.3143 32.042 20.6618 31.5172C20.7401 31.3968 20.8489 31.2904 20.9084 31.1608C20.9628 31.0418 20.973 30.9108 21.0027 30.7847C21.0155 30.7294 21.0325 30.6751 21.0536 30.6219C20.9878 30.6381 20.9213 30.6529 20.8579 30.672C20.6024 30.749 20.3735 30.8842 20.1932 31.0644C20.013 31.2446 19.8876 31.4637 19.8293 31.7004C19.7996 31.8265 19.7902 31.9575 19.735 32.0765C19.6755 32.2062 19.5679 32.3125 19.4884 32.433C19.1409 32.9577 19.3691 33.654 19.1053 34.2169C18.9655 34.5155 18.6857 34.8043 18.7741 35.1181C18.8548 35.4027 19.2019 35.5482 19.5178 35.6236C19.555 35.8173 19.4786 35.9539 19.3221 36.093C20.6356 36.5787 22.0446 37.0746 23.4376 36.8263C23.9154 36.7414 24.3808 36.5692 24.8677 36.5763C25.2133 36.5812 25.555 36.677 25.8998 36.6552C26.6274 36.609 27.2955 36.0494 28.0004 36.2174C27.7878 36.2304 27.7092 36.51 27.8344 36.6654C27.9597 36.8207 28.1902 36.8703 28.4023 36.8887C28.6145 36.907 28.8391 36.9084 29.0231 37.0056C28.8837 37.2666 28.3847 37.3578 28.4329 37.6448C28.4505 37.7484 28.5436 37.8269 28.636 37.8914C29.5851 38.5454 30.8923 38.4827 32.0802 38.5958C32.9561 38.6782 33.8149 38.8709 34.688 38.9737C36.083 39.1375 37.497 39.0706 38.9014 39.0029C39.1561 38.9906 39.4419 38.9652 39.6059 38.7891C39.7761 38.6053 39.7389 38.3524 39.7017 38.1048C38.4196 38.1647 37.1323 38.2073 35.8614 38.058Z" fill="black"/>
<path opacity="0.1" d="M21.4962 30.0341C21.6511 29.9101 21.8327 29.8161 22.0297 29.758C22.1988 29.7087 22.382 29.6851 22.5319 29.6013C22.6818 29.5174 22.7968 29.3452 22.7276 29.1976C22.6324 28.993 22.2626 28.9624 22.2105 28.7451C22.1867 28.645 22.2434 28.5531 22.3225 28.4735L21.27 29.2836C21.142 29.3822 21.0011 29.5125 21.0352 29.6604C21.081 29.8464 21.3573 29.8961 21.4962 30.0341Z" fill="black"/>
</g>
<path d="M25.0407 29.335C25.0765 29.2796 25.0903 29.2149 25.0798 29.1515C25.0736 29.1201 25.0561 29.0915 25.0299 29.0702C25.0036 29.0488 24.9703 29.0359 24.935 29.0335L24.9432 28.9321C24.9446 28.9203 24.9439 28.9084 24.9413 28.8968C24.9376 28.8824 24.9276 28.8698 24.9137 28.8619C24.8997 28.854 24.8828 28.8514 24.8667 28.8548C24.8506 28.8581 24.8366 28.867 24.8279 28.8796C24.8191 28.8922 24.8162 28.9074 24.8199 28.9219C24.7984 28.8717 24.7641 28.8268 24.7197 28.7908C24.6756 28.7638 24.6215 28.7536 24.569 28.7623C24.5165 28.771 24.47 28.798 24.4395 28.8373C24.4123 28.8787 24.4029 28.9276 24.413 28.9749C24.4231 29.0221 24.452 29.0643 24.4943 29.0937C24.471 29.0876 24.446 29.0891 24.4238 29.0979C24.4016 29.1067 24.3836 29.1224 24.373 29.142C24.2555 29.3318 24.4121 29.4304 24.5906 29.459C24.7863 29.4868 24.9334 29.5266 25.0407 29.335Z" fill="#FFE9B3"/>
<path d="M30.755 36.1677C30.7909 36.1123 30.8047 36.0476 30.7942 35.9842C30.788 35.9528 30.7704 35.9242 30.7442 35.9029C30.718 35.8815 30.6846 35.8686 30.6493 35.8662L30.6576 35.7648C30.6596 35.7531 30.6596 35.7412 30.6576 35.7295C30.6539 35.7151 30.644 35.7025 30.63 35.6946C30.616 35.6867 30.5991 35.6841 30.583 35.6875C30.5669 35.6908 30.5529 35.6997 30.5442 35.7123C30.5354 35.7249 30.5325 35.7401 30.5362 35.7546C30.5147 35.7044 30.4804 35.6595 30.436 35.6235C30.3919 35.5966 30.3378 35.5863 30.2853 35.595C30.2329 35.6037 30.1863 35.6307 30.1558 35.67C30.1286 35.7114 30.1192 35.7603 30.1293 35.8076C30.1394 35.8548 30.1683 35.897 30.2106 35.9264C30.1873 35.9203 30.1623 35.9218 30.1401 35.9306C30.1179 35.9395 30.0999 35.9551 30.0893 35.9747C29.9718 36.1645 30.1284 36.2631 30.3069 36.2917C30.5006 36.3195 30.6478 36.3593 30.755 36.1677Z" fill="#FFE9B3"/>
<path d="M34.6689 29.4407C34.7048 29.3853 34.7186 29.3206 34.708 29.2572C34.7019 29.2258 34.6843 29.1972 34.6581 29.1759C34.6319 29.1545 34.5985 29.1416 34.5632 29.1392L34.5714 29.0377C34.5734 29.0261 34.5734 29.0142 34.5714 29.0025C34.5678 28.988 34.5578 28.9755 34.5438 28.9676C34.5299 28.9597 34.513 28.9571 34.4969 28.9604C34.4808 28.9638 34.4668 28.9727 34.4581 28.9853C34.4493 28.9979 34.4464 29.0131 34.4501 29.0275C34.4286 28.9774 34.3943 28.9325 34.3499 28.8965C34.3058 28.8695 34.2516 28.8593 34.1992 28.868C34.1467 28.8767 34.1002 28.9036 34.0697 28.943C34.0425 28.9844 34.0331 29.0333 34.0432 29.0805C34.0533 29.1278 34.0822 29.17 34.1245 29.1994C34.1012 29.1933 34.0762 29.1948 34.054 29.2036C34.0318 29.2124 34.0138 29.228 34.0031 29.2477C33.8857 29.4375 34.0423 29.5361 34.2208 29.5646C34.4145 29.5925 34.5617 29.6323 34.6689 29.4407Z" fill="#FFE9B3"/>
<path d="M35.4051 29.3632C35.4701 29.3372 35.5234 29.2921 35.5562 29.2353C35.5718 29.2068 35.5764 29.1745 35.5693 29.1433C35.5623 29.1122 35.5439 29.0841 35.517 29.0634L35.5895 28.9853C35.5988 28.9763 35.6064 28.9661 35.6122 28.955C35.6186 28.9413 35.6188 28.9258 35.6127 28.912C35.6065 28.8982 35.5945 28.8872 35.5793 28.8814C35.5641 28.8755 35.5469 28.8754 35.5316 28.8809C35.5162 28.8864 35.504 28.8973 35.4975 28.9109C35.5127 28.859 35.5142 28.8046 35.5018 28.7521C35.4836 28.7069 35.4464 28.67 35.3982 28.6493C35.35 28.6287 35.2947 28.626 35.2442 28.6419C35.1953 28.661 35.1558 28.6956 35.1333 28.7392C35.1107 28.7827 35.1066 28.8321 35.1217 28.8782C35.1069 28.861 35.0858 28.849 35.0621 28.8443C35.0384 28.8397 35.0137 28.8427 34.9922 28.8528C34.7738 28.9448 34.8356 29.1061 34.9625 29.2237C35.0994 29.3522 35.1926 29.4618 35.4051 29.3632Z" fill="#FFE9B3"/>
<path d="M26.9198 29.5435C26.8578 29.512 26.7858 29.5004 26.7155 29.5107C26.6808 29.5166 26.6492 29.5327 26.6257 29.5565C26.6023 29.5803 26.5883 29.6104 26.5859 29.6421L26.4732 29.6361C26.4603 29.6343 26.4471 29.6343 26.4341 29.6361C26.4188 29.6405 26.4058 29.6497 26.3976 29.6621C26.3895 29.6746 26.3867 29.6893 26.3899 29.7034C26.394 29.7174 26.4038 29.7294 26.4174 29.7372C26.4309 29.7449 26.4472 29.7478 26.4631 29.7453C26.4076 29.7652 26.3581 29.7966 26.3186 29.8369C26.2892 29.8769 26.2784 29.9257 26.2887 29.9727C26.299 30.0198 26.3294 30.0613 26.3734 30.0884C26.4197 30.1123 26.4741 30.1203 26.5264 30.1108C26.5787 30.1013 26.6253 30.0749 26.6576 30.0366C26.651 30.0576 26.6529 30.08 26.6629 30.0999C26.6729 30.1197 26.6905 30.1357 26.7124 30.1451C26.9245 30.2483 27.0325 30.1098 27.0615 29.9457C27.0916 29.771 27.1339 29.6386 26.9198 29.5435Z" fill="#FFE9B3"/>
<path opacity="0.15" d="M26.9198 29.5435C26.8578 29.512 26.7858 29.5004 26.7155 29.5107C26.6808 29.5166 26.6492 29.5327 26.6257 29.5565C26.6023 29.5803 26.5883 29.6104 26.5859 29.6421L26.4732 29.6361C26.4603 29.6343 26.4471 29.6343 26.4341 29.6361C26.4188 29.6405 26.4058 29.6497 26.3976 29.6621C26.3895 29.6746 26.3867 29.6893 26.3899 29.7034C26.394 29.7174 26.4038 29.7294 26.4174 29.7372C26.4309 29.7449 26.4472 29.7478 26.4631 29.7453C26.4076 29.7652 26.3581 29.7966 26.3186 29.8369C26.2892 29.8769 26.2784 29.9257 26.2887 29.9727C26.299 30.0198 26.3294 30.0613 26.3734 30.0884C26.4197 30.1123 26.4741 30.1203 26.5264 30.1108C26.5787 30.1013 26.6253 30.0749 26.6576 30.0366C26.651 30.0576 26.6529 30.08 26.6629 30.0999C26.6729 30.1197 26.6905 30.1357 26.7124 30.1451C26.9245 30.2483 27.0325 30.1098 27.0615 29.9457C27.0916 29.771 27.1339 29.6386 26.9198 29.5435Z" fill="black"/>
<path d="M30.4047 32.1635C30.4167 32.1005 30.4049 32.0356 30.371 31.9793C30.3533 31.9517 30.3258 31.9303 30.293 31.9184C30.2602 31.9064 30.2239 31.9047 30.1898 31.9135L30.1585 31.8155C30.1554 31.8031 30.1501 31.7912 30.1429 31.7803C30.1338 31.7679 30.1197 31.7591 30.1035 31.7561C30.0873 31.753 30.0704 31.7558 30.0566 31.7639C30.0427 31.7721 30.033 31.7848 30.0296 31.7994C30.0262 31.8139 30.0293 31.8291 30.0384 31.8416C29.9991 31.801 29.9498 31.7694 29.8943 31.7493C29.8425 31.7377 29.7878 31.745 29.7419 31.7694C29.6959 31.7939 29.6626 31.8336 29.6489 31.88C29.6393 31.9273 29.6492 31.9761 29.6767 32.0173C29.7042 32.0584 29.7475 32.0892 29.7984 32.1036C29.7742 32.1051 29.7514 32.1142 29.7339 32.1293C29.7164 32.1445 29.7055 32.1647 29.7029 32.1864C29.6638 32.4009 29.8485 32.4456 30.0282 32.416C30.2239 32.384 30.3765 32.3748 30.4047 32.1635Z" fill="#FFE9B3"/>
<path opacity="0.15" d="M30.4047 32.1635C30.4167 32.1005 30.4049 32.0356 30.371 31.9793C30.3533 31.9517 30.3258 31.9303 30.293 31.9184C30.2602 31.9064 30.2239 31.9047 30.1898 31.9135L30.1585 31.8155C30.1554 31.8031 30.1501 31.7912 30.1429 31.7803C30.1338 31.7679 30.1197 31.7591 30.1035 31.7561C30.0873 31.753 30.0704 31.7558 30.0566 31.7639C30.0427 31.7721 30.033 31.7848 30.0296 31.7994C30.0262 31.8139 30.0293 31.8291 30.0384 31.8416C29.9991 31.801 29.9498 31.7694 29.8943 31.7493C29.8425 31.7377 29.7878 31.745 29.7419 31.7694C29.6959 31.7939 29.6626 31.8336 29.6489 31.88C29.6393 31.9273 29.6492 31.9761 29.6767 32.0173C29.7042 32.0584 29.7475 32.0892 29.7984 32.1036C29.7742 32.1051 29.7514 32.1142 29.7339 32.1293C29.7164 32.1445 29.7055 32.1647 29.7029 32.1864C29.6638 32.4009 29.8485 32.4456 30.0282 32.416C30.2239 32.384 30.3765 32.3748 30.4047 32.1635Z" fill="black"/>
<path d="M35.1014 28.9585C35.1134 28.8954 35.1016 28.8306 35.0678 28.7743C35.05 28.7467 35.0226 28.7253 34.9897 28.7133C34.9569 28.7014 34.9206 28.6997 34.8865 28.7084L34.8552 28.6105C34.8521 28.5981 34.8469 28.5862 34.8396 28.5753C34.8351 28.5691 34.8293 28.5638 34.8226 28.5596C34.8158 28.5555 34.8082 28.5526 34.8002 28.551C34.7922 28.5495 34.7839 28.5494 34.7759 28.5508C34.7678 28.5521 34.7601 28.5549 34.7533 28.5589C34.7464 28.563 34.7405 28.5682 34.7359 28.5742C34.7312 28.5803 34.728 28.5872 34.7263 28.5944C34.7246 28.6016 34.7245 28.609 34.726 28.6163C34.7275 28.6235 34.7306 28.6304 34.7351 28.6366C34.6958 28.596 34.6465 28.5644 34.591 28.5443C34.5393 28.5327 34.4845 28.5399 34.4386 28.5644C34.3927 28.5888 34.3593 28.6286 34.3456 28.675C34.336 28.7223 34.3459 28.7711 34.3734 28.8122C34.4009 28.8534 34.4442 28.8841 34.4952 28.8986C34.4709 28.9001 34.4481 28.9092 34.4306 28.9243C34.4131 28.9395 34.4022 28.9597 34.3997 28.9814C34.3605 29.1959 34.5452 29.2406 34.7249 29.211C34.9206 29.179 35.0732 29.1698 35.1014 28.9585Z" fill="#FFE9B3"/>
<path opacity="0.15" d="M35.1014 28.9585C35.1134 28.8954 35.1016 28.8306 35.0678 28.7743C35.05 28.7467 35.0226 28.7253 34.9897 28.7133C34.9569 28.7014 34.9206 28.6997 34.8865 28.7084L34.8552 28.6105C34.8521 28.5981 34.8469 28.5862 34.8396 28.5753C34.8351 28.5691 34.8293 28.5638 34.8226 28.5596C34.8158 28.5555 34.8082 28.5526 34.8002 28.551C34.7922 28.5495 34.7839 28.5494 34.7759 28.5508C34.7678 28.5521 34.7601 28.5549 34.7533 28.5589C34.7464 28.563 34.7405 28.5682 34.7359 28.5742C34.7312 28.5803 34.728 28.5872 34.7263 28.5944C34.7246 28.6016 34.7245 28.609 34.726 28.6163C34.7275 28.6235 34.7306 28.6304 34.7351 28.6366C34.6958 28.596 34.6465 28.5644 34.591 28.5443C34.5393 28.5327 34.4845 28.5399 34.4386 28.5644C34.3927 28.5888 34.3593 28.6286 34.3456 28.675C34.336 28.7223 34.3459 28.7711 34.3734 28.8122C34.4009 28.8534 34.4442 28.8841 34.4952 28.8986C34.4709 28.9001 34.4481 28.9092 34.4306 28.9243C34.4131 28.9395 34.4022 28.9597 34.3997 28.9814C34.3605 29.1959 34.5452 29.2406 34.7249 29.211C34.9206 29.179 35.0732 29.1698 35.1014 28.9585Z" fill="black"/>
</g>
<defs>
<filter id="filter0_d_27_703" x="0" y="0" width="61" height="61" filterUnits="userSpaceOnUse" color-interpolation-filters="sRGB">
<feFlood flood-opacity="0" result="BackgroundImageFix"/>
<feColorMatrix in="SourceAlpha" type="matrix" values="0 0 0 0 0 0 0 0 0 0 0 0 0 0 0 0 0 0 127 0" result="hardAlpha"/>
<feOffset dy="4"/>
<feGaussianBlur stdDeviation="2"/>
<feColorMatrix type="matrix" values="0 0 0 0 0.474444 0 0 0 0 0.68303 0 0 0 0 0.933333 0 0 0 0.25 0"/>
<feBlend mode="normal" in2="BackgroundImageFix" result="effect1_dropShadow_27_703"/>
<feBlend mode="normal" in="SourceGraphic" in2="effect1_dropShadow_27_703" result="shape"/>
</filter>
</defs>
</svg>
